<?xml version="1.0" standalone="no"?>
<!DOCTYPE svg PUBLIC "-//W3C//DTD SVG 20010904//EN"
 "http://www.w3.org/TR/2001/REC-SVG-20010904/DTD/svg10.dtd">
<svg version="1.0" xmlns="http://www.w3.org/2000/svg"
 width="1017.000000pt" height="1017.000000pt" viewBox="0 0 1017.000000 1017.000000"
 preserveAspectRatio="xMidYMid meet">
<metadata>
Created by potrace 1.14, written by Peter Selinger 2001-2017
</metadata>
<g transform="translate(0.000000,1017.000000) scale(0.100000,-0.100000)"
fill="#000000" stroke="none">
<path d="M6706 8472 c-2 -2 -569 -9 -1301 -16 -162 -1 -124 18 -311 -163 -62
-59 -191 -184 -289 -278 -98 -93 -215 -206 -260 -250 -46 -44 -160 -154 -255
-245 -306 -294 -354 -341 -356 -353 -9 -61 -13 -77 -17 -84 -3 -5 -8 -27 -11
-49 -3 -21 -8 -50 -11 -64 -3 -14 -8 -38 -11 -55 -3 -16 -10 -50 -15 -75 -6
-25 -13 -56 -15 -70 -11 -63 -27 -136 -30 -142 -4 -7 -26 8 -59 40 -8 6 -17
12 -22 12 -4 0 -21 11 -36 25 -15 14 -27 22 -27 18 0 -4 -4 -3 -8 2 -12 17
-272 200 -285 201 -7 0 -29 -6 -49 -13 -21 -6 -38 -10 -38 -8 0 3 -11 0 -25
-5 -14 -5 -36 -12 -48 -14 -12 -2 -51 -11 -87 -20 -36 -9 -74 -18 -85 -20 -11
-2 -60 -14 -110 -26 l-90 -22 -110 -113 c-60 -62 -171 -177 -245 -255 -74 -78
-154 -162 -178 -186 l-42 -44 -103 5 c-56 3 -154 7 -217 10 -63 3 -164 7 -225
10 -273 13 -347 16 -467 20 -71 2 -133 7 -137 9 -14 9 -53 -27 -316 -286 -137
-136 -361 -356 -497 -490 l-248 -243 -4 -105 c-12 -258 -19 -461 -20 -527 -1
-40 -3 -73 -6 -73 -3 0 -5 -42 -6 -93 -1 -84 -10 -362 -19 -562 -12 -285 -15
-365 -12 -365 2 0 13 8 25 18 11 10 33 27 47 38 15 10 32 24 39 29 6 6 40 33
76 60 36 28 70 55 76 60 6 6 29 24 50 40 21 17 61 48 89 70 27 22 77 61 110
87 33 25 71 55 85 67 31 26 22 19 160 126 63 49 123 97 133 107 10 10 21 18
25 18 4 0 22 14 41 30 18 17 36 30 40 30 5 0 79 -137 178 -330 15 -30 33 -58
38 -62 6 -4 6 -8 1 -8 -5 0 -1 -9 9 -20 16 -18 27 -19 124 -15 58 3 167 7 241
10 74 3 178 8 230 10 52 2 169 7 260 10 l165 5 194 -189 194 -189 161 4 c89 2
260 6 381 9 121 3 242 6 268 6 26 1 53 6 60 13 7 6 20 16 29 21 23 15 141 98
153 107 6 5 51 38 100 73 50 35 95 68 100 72 6 5 37 28 71 51 l60 42 50 -14
c27 -9 90 -28 139 -43 50 -15 96 -28 103 -30 22 -5 36 -9 82 -23 61 -18 59
-18 110 -31 25 -7 46 -13 48 -15 3 -2 -24 -71 -59 -151 -11 -24 -19 -45 -19
-49 0 -3 -11 -30 -25 -60 -14 -30 -25 -57 -25 -60 0 -3 -8 -24 -19 -47 -17
-40 -32 -76 -36 -87 -9 -27 -28 -70 -39 -90 -8 -14 -14 -27 -14 -30 -1 -6 -11
-32 -51 -130 l-30 -75 38 -35 c22 -19 60 -53 87 -75 26 -22 61 -53 79 -70 17
-16 55 -50 85 -75 30 -25 64 -54 76 -65 11 -11 34 -31 50 -45 37 -31 175 -152
190 -165 6 -5 37 -32 69 -60 32 -27 73 -63 91 -80 19 -16 40 -35 47 -41 41
-35 173 -149 177 -154 5 -5 186 -164 319 -279 36 -31 72 -63 81 -71 73 -66 64
-63 122 -51 29 6 65 13 81 16 15 3 37 7 50 10 12 3 33 7 47 10 14 2 36 7 50
10 14 2 36 7 50 9 26 5 184 36 210 41 8 2 15 4 15 5 0 1 18 4 40 6 52 7 80 12
80 14 0 2 14 5 60 13 17 3 39 8 50 10 11 2 38 8 60 12 71 13 91 17 165 33 25
6 65 14 90 17 24 4 47 8 50 10 4 3 60 14 100 19 8 2 29 6 45 9 29 6 53 11 113
22 15 3 38 8 52 11 14 3 36 8 50 10 21 4 64 12 210 40 14 3 113 23 220 44 107
21 207 41 223 44 15 3 35 7 45 10 9 3 33 7 52 10 19 3 46 8 60 11 76 15 128
25 153 29 66 11 70 15 63 60 -4 22 -9 64 -12 91 -3 28 -7 61 -10 75 -3 14 -7
41 -9 60 -2 19 -9 64 -14 100 -16 99 -21 140 -27 202 -6 51 -4 57 12 56 11 0
80 12 154 26 74 15 155 31 180 36 24 4 48 6 52 4 5 -3 8 0 8 5 0 6 3 10 8 9 6
-1 38 3 127 18 6 1 13 3 18 4 12 4 19 6 72 15 28 4 55 9 60 11 6 1 28 5 50 8
22 4 48 9 58 12 11 3 29 7 40 9 48 7 102 17 108 21 4 2 26 6 50 9 23 3 61 10
83 16 23 5 55 12 71 14 27 4 103 17 115 20 3 1 25 5 50 9 84 14 100 24 101 65
0 20 2 44 4 55 2 10 7 55 10 100 4 44 8 95 10 111 2 17 6 62 9 100 4 39 9 86
11 105 2 19 7 71 11 115 4 44 8 94 10 110 2 17 6 59 9 94 2 35 7 80 9 100 3
20 8 72 12 116 8 100 10 116 18 190 4 33 8 80 10 105 2 25 7 79 11 121 4 48 3
91 -5 120 -7 24 -14 51 -16 59 -2 8 -8 33 -13 55 -6 22 -7 43 -3 46 4 3 41 20
83 37 79 32 95 45 229 194 36 39 91 98 122 131 l58 60 -5 81 c-3 45 -7 92 -10
106 -3 14 -7 57 -10 95 -3 39 -8 88 -10 110 -3 22 -7 67 -10 100 -3 33 -8 78
-10 100 -13 125 -16 155 -20 205 -3 30 -7 71 -9 90 -3 19 -7 67 -10 105 -7 79
-13 149 -21 215 -8 67 -13 104 -14 116 0 6 -29 31 -63 55 -35 24 -67 47 -73
52 -9 7 -256 185 -365 263 -19 13 -76 55 -127 92 -50 37 -115 83 -143 102 -28
19 -56 40 -63 45 -7 6 -68 51 -137 100 -69 50 -126 93 -128 98 -2 4 -10 7 -17
7 -8 0 -18 6 -22 13 -4 8 -23 22 -40 32 -18 11 -33 23 -33 27 0 4 -5 8 -11 8
-6 0 -30 16 -53 35 -24 19 -46 35 -50 35 -4 0 -14 6 -21 14 -13 13 -226 168
-263 191 -8 6 -23 16 -31 22 -22 17 -184 134 -212 153 -12 8 -34 24 -48 35
-58 44 -91 65 -92 58 -2 -13 -6 -55 -13 -128 -12 -121 -11 -123 -112 172 -15
46 -35 85 -45 90 -9 4 -30 18 -45 30 -16 13 -76 57 -134 98 -58 41 -114 82
-125 90 -11 9 -32 24 -47 33 -16 9 -28 20 -28 24 0 4 -5 8 -10 8 -6 0 -21 9
-33 20 -21 20 -32 20 -380 18 -197 -2 -360 -4 -361 -6z"/>
<path d="M3002 2577 c-5 -7 -21 -34 -37 -62 -16 -27 -31 -52 -35 -55 -4 -3
-14 -19 -23 -36 -24 -46 -37 -53 -136 -71 -85 -15 -91 -18 -85 -37 17 -53 25
-66 41 -67 10 0 48 -2 86 -3 37 -2 69 -5 72 -8 6 -6 137 -448 138 -465 0 -7 4
-13 9 -13 5 0 6 -4 3 -10 -16 -27 12 -25 92 7 49 18 97 38 108 43 58 25 191
74 198 72 4 -1 7 2 7 8 0 5 7 10 16 10 9 0 30 6 47 14 52 23 211 87 227 91 49
12 135 56 131 67 -2 7 -4 18 -5 25 -1 7 -5 16 -9 19 -4 4 -7 16 -7 26 0 13 -4
17 -12 11 -7 -4 -61 -24 -119 -44 -81 -28 -109 -33 -121 -25 -14 10 -125 108
-188 166 -16 14 -48 43 -72 65 -48 43 -47 37 -23 145 3 14 7 39 9 56 2 17 6
36 10 43 5 7 -4 11 -26 12 -18 0 -42 2 -53 4 -11 2 -51 7 -90 10 -38 4 -87 8
-107 10 -20 2 -41 -2 -46 -8z"/>
</g>
</svg>
