<?xml version="1.0" encoding="utf-8"?>
<!-- Generator: Adobe Illustrator 25.4.1, SVG Export Plug-In . SVG Version: 6.00 Build 0)  -->
<svg version="1.1" id="mapa" xmlns="http://www.w3.org/2000/svg" xmlns:xlink="http://www.w3.org/1999/xlink" x="0px" y="0px"
	 viewBox="0 0 1017 678" style="enable-background:new 0 0 1017 678;" xml:space="preserve">
<style type="text/css">
	.st0{fill:#E63324;}
	.st1{fill:#FFFFFF;}
</style>
<g id="map_00000119806231876229444290000005261154191818919575_">
	<path id="map" class="st0" d="M7,324.5l103.5-101.8c39.2,1.8,78.3,3.5,117.5,5.3l57-59.6c18.1-4.4,36.3-8.8,54.4-13.2
		c14.3,10.2,28.6,20.5,43,30.7l11.4-56.1L526.2,2.6C598.1,1.8,670,0.9,741.9,0c15.7,11.3,31.4,22.7,47.1,34l12.2,35.9l2.8-25
		l199.2,143.7l13.1,132.5l-33.4,36c-5.7,2.3-11.3,4.7-17,7l5.3,20.5l-14.6,154c-47.4,9.1-94.7,18.1-142.1,27.2l8.8,62.3
		c-84.8,16.7-169.5,33.3-254.3,50L423,550.6l32.2-77.8c-17.9-5.3-35.9-10.5-53.8-15.8L349,494.7l-85.7,2.1l-39.2-38
		c-33.5,1.4-67,2.7-100.6,4.1l-23.4-44.4L0,497.4L7,324.5z"/>
	<path class="st0" d="M271.1,623.1l-3.5-8.8c6.6-1.2,13.3-2.3,19.9-3.5l13.4-21.6l31.6,2.9l-4.1,21.6l31.6,28.1l23.4-8.2l3.5,9.4
		c-27.7,10.9-55.4,21.9-83,32.7l-15.2-52C282.8,623.5,276.9,623.3,271.1,623.1z"/>
</g>
<g id="dots">
	<path class="st1" d="M41.1,322c0,1.4,1.2,2.6,2.6,2.6c1.4,0,2.6-1.2,2.6-2.6c0-1.4-1.2-2.6-2.6-2.6C42.2,319.4,41.1,320.5,41.1,322
		z"/>
	<path class="st1" d="M828.2,454.8c0,1.4,1.2,2.6,2.6,2.6c1.4,0,2.6-1.2,2.6-2.6c0-1.4-1.2-2.6-2.6-2.6
		C829.3,452.3,828.2,453.4,828.2,454.8z"/>
	<path class="st1" d="M835.8,461.2c0,1.4,1.2,2.6,2.6,2.6c1.4,0,2.6-1.2,2.6-2.6c0-1.4-1.2-2.6-2.6-2.6
		C837,458.7,835.8,459.8,835.8,461.2z"/>
	<path class="st1" d="M849.7,461.2c0,1.4,1.2,2.6,2.6,2.6s2.6-1.2,2.6-2.6c0-1.4-1.2-2.6-2.6-2.6S849.7,459.8,849.7,461.2z"/>
	<path class="st1" d="M834.3,472.2c0,1.4,1.2,2.6,2.6,2.6s2.6-1.2,2.6-2.6c0-1.4-1.2-2.6-2.6-2.6S834.3,470.8,834.3,472.2z"/>
	<path class="st1" d="M830.3,472.2c0,1.4,1.2,2.6,2.6,2.6c1.4,0,2.6-1.2,2.6-2.6c0-1.4-1.2-2.6-2.6-2.6
		C831.5,469.7,830.3,470.8,830.3,472.2z"/>
	<path class="st1" d="M843.6,473.6c0,1.4,1.2,2.6,2.6,2.6c1.4,0,2.6-1.2,2.6-2.6c0-1.4-1.2-2.6-2.6-2.6
		C844.7,471,843.6,472.2,843.6,473.6z"/>
	<path class="st1" d="M305.8,227.9c0,1.4,1.2,2.6,2.6,2.6c1.4,0,2.6-1.2,2.6-2.6c0-1.4-1.2-2.6-2.6-2.6
		C306.9,225.3,305.8,226.4,305.8,227.9z"/>
	<path class="st1" d="M310.9,232.2c0,1.4,1.2,2.6,2.6,2.6c1.4,0,2.6-1.2,2.6-2.6c0-1.4-1.2-2.6-2.6-2.6
		C312.1,229.6,310.9,230.7,310.9,232.2z"/>
	<path class="st1" d="M316.9,225.3c0,1.4,1.2,2.6,2.6,2.6c1.4,0,2.6-1.2,2.6-2.6c0-1.4-1.2-2.6-2.6-2.6
		C318.1,222.7,316.9,223.8,316.9,225.3z"/>
	<path class="st1" d="M323.2,233c0,1.4,1.2,2.6,2.6,2.6c1.4,0,2.6-1.2,2.6-2.6c0-1.4-1.2-2.6-2.6-2.6
		C324.4,230.4,323.2,231.6,323.2,233z"/>
	<path class="st1" d="M303.2,250.8c0,1.4,1.2,2.6,2.6,2.6c1.4,0,2.6-1.2,2.6-2.6c0-1.4-1.2-2.6-2.6-2.6
		C304.3,248.2,303.2,249.4,303.2,250.8z"/>
	<path class="st1" d="M291.9,250.1c0,1.4,1.2,2.6,2.6,2.6c1.4,0,2.6-1.2,2.6-2.6c0-1.4-1.2-2.6-2.6-2.6
		C293,247.6,291.9,248.7,291.9,250.1z"/>
	<path class="st1" d="M285.8,246.1c0,1.4,1.2,2.6,2.6,2.6c1.4,0,2.6-1.2,2.6-2.6c0-1.4-1.2-2.6-2.6-2.6
		C287,243.5,285.8,244.7,285.8,246.1z"/>
	<path class="st1" d="M265,244.5c0,1.4,1.2,2.6,2.6,2.6c1.4,0,2.6-1.2,2.6-2.6s-1.2-2.6-2.6-2.6C266.1,241.9,265,243.1,265,244.5z"
		/>
	<path class="st1" d="M277.1,228.3c0,1.4,1.2,2.6,2.6,2.6c1.4,0,2.6-1.2,2.6-2.6c0-1.4-1.2-2.6-2.6-2.6
		C278.3,225.7,277.1,226.9,277.1,228.3z"/>
	<path class="st1" d="M293.7,243c0,1.4,1.2,2.6,2.6,2.6c1.4,0,2.6-1.2,2.6-2.6c0-1.4-1.2-2.6-2.6-2.6
		C294.8,240.4,293.7,241.5,293.7,243z"/>
	<path class="st1" d="M298.8,267.3c0,1.4,1.2,2.6,2.6,2.6c1.4,0,2.6-1.2,2.6-2.6c0-1.4-1.2-2.6-2.6-2.6
		C300,264.7,298.8,265.8,298.8,267.3z"/>
	<path class="st1" d="M202.6,344.2c0,1.4,1.2,2.6,2.6,2.6c1.4,0,2.6-1.2,2.6-2.6c0-1.4-1.2-2.6-2.6-2.6
		C203.7,341.7,202.6,342.8,202.6,344.2z"/>
	<path class="st1" d="M178.9,368.3c0,1.4,1.2,2.6,2.6,2.6c1.4,0,2.6-1.2,2.6-2.6c0-1.4-1.2-2.6-2.6-2.6
		C180.1,365.8,178.9,366.9,178.9,368.3z"/>
	<path class="st1" d="M206.7,368.3c0,1.4,1.2,2.6,2.6,2.6c1.4,0,2.6-1.2,2.6-2.6c0-1.4-1.2-2.6-2.6-2.6
		C207.9,365.8,206.7,366.9,206.7,368.3z"/>
	<path class="st1" d="M187.4,347.5c0,1.4,1.2,2.6,2.6,2.6c1.4,0,2.6-1.2,2.6-2.6c0-1.4-1.2-2.6-2.6-2.6
		C188.5,344.9,187.4,346.1,187.4,347.5z"/>
	<path class="st1" d="M320.6,248.7c0,1.4,1.2,2.6,2.6,2.6c1.4,0,2.6-1.2,2.6-2.6s-1.2-2.6-2.6-2.6
		C321.8,246.1,320.6,247.2,320.6,248.7z"/>
	<path class="st1" d="M285.1,264.7c0,1.4,1.2,2.6,2.6,2.6c1.4,0,2.6-1.2,2.6-2.6c0-1.4-1.2-2.6-2.6-2.6
		C286.2,262.1,285.1,263.2,285.1,264.7z"/>
	<path class="st1" d="M440.6,342.7c0,1.4,1.2,2.6,2.6,2.6c1.4,0,2.6-1.2,2.6-2.6c0-1.4-1.2-2.6-2.6-2.6
		C441.7,340.1,440.6,341.3,440.6,342.7z"/>
	<path class="st1" d="M419.1,340.1c0,1.4,1.2,2.6,2.6,2.6c1.4,0,2.6-1.2,2.6-2.6c0-1.4-1.2-2.6-2.6-2.6
		C420.2,337.6,419.1,338.7,419.1,340.1z"/>
	<path class="st1" d="M409.9,358.8c0,1.4,1.2,2.6,2.6,2.6c1.4,0,2.6-1.2,2.6-2.6c0-1.4-1.2-2.6-2.6-2.6
		C411.1,356.2,409.9,357.4,409.9,358.8z"/>
	<path class="st1" d="M444.5,345.3c0,1.4,1.2,2.6,2.6,2.6c1.4,0,2.6-1.2,2.6-2.6c0-1.4-1.2-2.6-2.6-2.6
		C445.6,342.7,444.5,343.9,444.5,345.3z"/>
	<path class="st1" d="M735,343c0,1.4,1.2,2.6,2.6,2.6c1.4,0,2.6-1.2,2.6-2.6c0-1.4-1.2-2.6-2.6-2.6C736.1,340.4,735,341.6,735,343z"
		/>
	<path class="st1" d="M724,345.6c0,1.4,1.2,2.6,2.6,2.6c1.4,0,2.6-1.2,2.6-2.6c0-1.4-1.2-2.6-2.6-2.6C725.2,343,724,344.2,724,345.6
		z"/>
	<path class="st1" d="M717.9,358.8c0,1.4,1.2,2.6,2.6,2.6s2.6-1.2,2.6-2.6c0-1.4-1.2-2.6-2.6-2.6S717.9,357.4,717.9,358.8z"/>
	<path class="st1" d="M716.3,367.6c0,1.4,1.2,2.6,2.6,2.6c1.4,0,2.6-1.2,2.6-2.6c0-1.4-1.2-2.6-2.6-2.6
		C717.4,365,716.3,366.2,716.3,367.6z"/>
	<path class="st1" d="M729,376.3c0,1.4,1.2,2.6,2.6,2.6c1.4,0,2.6-1.2,2.6-2.6c0-1.4-1.2-2.6-2.6-2.6
		C730.2,373.7,729,374.9,729,376.3z"/>
	<path class="st1" d="M731.6,366.5c0,1.4,1.2,2.6,2.6,2.6c1.4,0,2.6-1.2,2.6-2.6c0-1.4-1.2-2.6-2.6-2.6
		C732.8,363.9,731.6,365.1,731.6,366.5z"/>
	<path class="st1" d="M737.6,372.6c0,1.4,1.2,2.6,2.6,2.6c1.4,0,2.6-1.2,2.6-2.6c0-1.4-1.2-2.6-2.6-2.6
		C738.7,370.1,737.6,371.2,737.6,372.6z"/>
	<path class="st1" d="M759.7,366.5c0,1.4,1.2,2.6,2.6,2.6c1.4,0,2.6-1.2,2.6-2.6c0-1.4-1.2-2.6-2.6-2.6
		C760.9,363.9,759.7,365.1,759.7,366.5z"/>
	<path class="st1" d="M761,352.8c0,1.4,1.2,2.6,2.6,2.6c1.4,0,2.6-1.2,2.6-2.6c0-1.4-1.2-2.6-2.6-2.6
		C762.2,350.3,761,351.4,761,352.8z"/>
	<path class="st1" d="M703.2,372.6c0,1.4,1.2,2.6,2.6,2.6s2.6-1.2,2.6-2.6c0-1.4-1.2-2.6-2.6-2.6S703.2,371.2,703.2,372.6z"/>
	<path class="st1" d="M919,239.7c0,1.4,1.2,2.6,2.6,2.6c1.4,0,2.6-1.2,2.6-2.6c0-1.4-1.2-2.6-2.6-2.6
		C920.2,237.1,919,238.2,919,239.7z"/>
	<path class="st1" d="M464.3,496.2c0,1.4,1.2,2.6,2.6,2.6c1.4,0,2.6-1.2,2.6-2.6c0-1.4-1.2-2.6-2.6-2.6
		C465.5,493.6,464.3,494.8,464.3,496.2z"/>
	<path class="st1" d="M626.3,545.6c0,1.4,1.2,2.6,2.6,2.6c1.4,0,2.6-1.2,2.6-2.6s-1.2-2.6-2.6-2.6
		C627.4,543,626.3,544.2,626.3,545.6z"/>
	<path class="st1" d="M635,517.1c0,1.4,1.2,2.6,2.6,2.6c1.4,0,2.6-1.2,2.6-2.6c0-1.4-1.2-2.6-2.6-2.6
		C636.1,514.5,635,515.7,635,517.1z"/>
	<path class="st1" d="M639.1,556.2c0,1.4,1.2,2.6,2.6,2.6c1.4,0,2.6-1.2,2.6-2.6c0-1.4-1.2-2.6-2.6-2.6
		C640.3,553.7,639.1,554.8,639.1,556.2z"/>
	<path class="st1" d="M426.3,411c0,1.4,1.2,2.6,2.6,2.6c1.4,0,2.6-1.2,2.6-2.6c0-1.4-1.2-2.6-2.6-2.6
		C427.4,408.4,426.3,409.6,426.3,411z"/>
	<path class="st1" d="M440.6,431.5c0,1.4,1.2,2.6,2.6,2.6c1.4,0,2.6-1.2,2.6-2.6c0-1.4-1.2-2.6-2.6-2.6
		C441.8,428.9,440.6,430.1,440.6,431.5z"/>
	<path class="st1" d="M460.7,416.1c0,1.4,1.2,2.6,2.6,2.6c1.4,0,2.6-1.2,2.6-2.6c0-1.4-1.2-2.6-2.6-2.6
		C461.8,413.6,460.7,414.7,460.7,416.1z"/>
	<path class="st1" d="M820.3,237.8c0,1.4,1.2,2.6,2.6,2.6c1.4,0,2.6-1.2,2.6-2.6c0-1.4-1.2-2.6-2.6-2.6
		C821.5,235.3,820.3,236.4,820.3,237.8z"/>
	<path class="st1" d="M519.3,356.2c0,1.4,1.2,2.6,2.6,2.6c1.4,0,2.6-1.2,2.6-2.6c0-1.4-1.2-2.6-2.6-2.6
		C520.5,353.6,519.3,354.8,519.3,356.2z"/>
	<path class="st1" d="M526.2,361.4c0,1.4,1.2,2.6,2.6,2.6c1.4,0,2.6-1.2,2.6-2.6c0-1.4-1.2-2.6-2.6-2.6
		C527.4,358.8,526.2,360,526.2,361.4z"/>
	<path class="st1" d="M515.9,375.2c0,1.4,1.2,2.6,2.6,2.6s2.6-1.2,2.6-2.6c0-1.4-1.2-2.6-2.6-2.6S515.9,373.8,515.9,375.2z"/>
	<path class="st1" d="M495.6,369.1c0,1.4,1.2,2.6,2.6,2.6c1.4,0,2.6-1.2,2.6-2.6c0-1.4-1.2-2.6-2.6-2.6
		C496.8,366.5,495.6,367.7,495.6,369.1z"/>
	<path class="st1" d="M534.2,370.9c0,1.4,1.2,2.6,2.6,2.6c1.4,0,2.6-1.2,2.6-2.6c0-1.4-1.2-2.6-2.6-2.6
		C535.4,368.3,534.2,369.5,534.2,370.9z"/>
	<path class="st1" d="M567.2,372.6c0,1.4,1.2,2.6,2.6,2.6c1.4,0,2.6-1.2,2.6-2.6c0-1.4-1.2-2.6-2.6-2.6
		C568.4,370.1,567.2,371.2,567.2,372.6z"/>
	<path class="st1" d="M569.8,380.8c0,1.4,1.2,2.6,2.6,2.6c1.4,0,2.6-1.2,2.6-2.6c0-1.4-1.2-2.6-2.6-2.6
		C571,378.2,569.8,379.4,569.8,380.8z"/>
	<path class="st1" d="M494.9,356.9c0,1.4,1.2,2.6,2.6,2.6c1.4,0,2.6-1.2,2.6-2.6c0-1.4-1.2-2.6-2.6-2.6
		C496,354.3,494.9,355.4,494.9,356.9z"/>
	<path class="st1" d="M848.8,513.1c0,1.4,1.2,2.6,2.6,2.6c1.4,0,2.6-1.2,2.6-2.6c0-1.4-1.2-2.6-2.6-2.6
		C849.9,510.5,848.8,511.7,848.8,513.1z"/>
	<path class="st1" d="M916.4,488.4c0,1.4,1.2,2.6,2.6,2.6s2.6-1.2,2.6-2.6c0-1.4-1.2-2.6-2.6-2.6S916.4,486.9,916.4,488.4z"/>
	<path class="st1" d="M930.9,490.2c0,1.4,1.2,2.6,2.6,2.6c1.4,0,2.6-1.2,2.6-2.6c0-1.4-1.2-2.6-2.6-2.6
		C932.1,487.6,930.9,488.8,930.9,490.2z"/>
	<path class="st1" d="M926.2,499.7c0,1.4,1.2,2.6,2.6,2.6c1.4,0,2.6-1.2,2.6-2.6c0-1.4-1.2-2.6-2.6-2.6
		C927.4,497.1,926.2,498.3,926.2,499.7z"/>
	<path class="st1" d="M911.3,502.7c0,1.4,1.2,2.6,2.6,2.6s2.6-1.2,2.6-2.6s-1.2-2.6-2.6-2.6S911.3,501.3,911.3,502.7z"/>
	<path class="st1" d="M897.7,492.1c0,1.4,1.2,2.6,2.6,2.6c1.4,0,2.6-1.2,2.6-2.6c0-1.4-1.2-2.6-2.6-2.6
		C898.9,489.5,897.7,490.7,897.7,492.1z"/>
	<path class="st1" d="M944.4,498.1c0,1.4,1.2,2.6,2.6,2.6c1.4,0,2.6-1.2,2.6-2.6c0-1.4-1.2-2.6-2.6-2.6
		C945.6,495.5,944.4,496.6,944.4,498.1z"/>
	<path class="st1" d="M936.1,504.9c0,1.4,1.2,2.6,2.6,2.6c1.4,0,2.6-1.2,2.6-2.6c0-1.4-1.2-2.6-2.6-2.6
		C937.3,502.3,936.1,503.4,936.1,504.9z"/>
	<path class="st1" d="M880,260.8c0,1.4,1.2,2.6,2.6,2.6c1.4,0,2.6-1.2,2.6-2.6c0-1.4-1.2-2.6-2.6-2.6
		C881.2,258.2,880,259.4,880,260.8z"/>
	<path class="st1" d="M897.2,262.9c0,1.4,1.2,2.6,2.6,2.6c1.4,0,2.6-1.2,2.6-2.6c0-1.4-1.2-2.6-2.6-2.6
		C898.4,260.3,897.2,261.4,897.2,262.9z"/>
	<path class="st1" d="M631,25.9c0,1.4,1.2,2.6,2.6,2.6s2.6-1.2,2.6-2.6c0-1.4-1.2-2.6-2.6-2.6S631,24.5,631,25.9z"/>
	<path class="st1" d="M650.2,32.9c0,1.4,1.2,2.6,2.6,2.6s2.6-1.2,2.6-2.6c0-1.4-1.2-2.6-2.6-2.6S650.2,31.5,650.2,32.9z"/>
	<path class="st1" d="M655.3,12.7c0,1.4,1.2,2.6,2.6,2.6s2.6-1.2,2.6-2.6c0-1.4-1.2-2.6-2.6-2.6S655.3,11.3,655.3,12.7z"/>
	<path class="st1" d="M663.8,31.1c0,1.4,1.2,2.6,2.6,2.6c1.4,0,2.6-1.2,2.6-2.6c0-1.4-1.2-2.6-2.6-2.6
		C665,28.5,663.8,29.7,663.8,31.1z"/>
	<path class="st1" d="M177.9,418.8c0,1.4,1.2,2.6,2.6,2.6s2.6-1.2,2.6-2.6c0-1.4-1.2-2.6-2.6-2.6S177.9,417.3,177.9,418.8z"/>
	<path class="st1" d="M199.1,421.3c0,1.4,1.2,2.6,2.6,2.6c1.4,0,2.6-1.2,2.6-2.6c0-1.4-1.2-2.6-2.6-2.6
		C200.3,418.8,199.1,419.9,199.1,421.3z"/>
	<path class="st1" d="M175.4,444.1c0,1.4,1.2,2.6,2.6,2.6c1.4,0,2.6-1.2,2.6-2.6c0-1.4-1.2-2.6-2.6-2.6
		C176.5,441.5,175.4,442.7,175.4,444.1z"/>
	<path class="st1" d="M199.1,440.7c0,1.4,1.2,2.6,2.6,2.6c1.4,0,2.6-1.2,2.6-2.6c0-1.4-1.2-2.6-2.6-2.6
		C200.3,438.2,199.1,439.3,199.1,440.7z"/>
	<path class="st1" d="M217.4,434.7c0,1.4,1.2,2.6,2.6,2.6s2.6-1.2,2.6-2.6c0-1.4-1.2-2.6-2.6-2.6S217.4,433.3,217.4,434.7z"/>
	<path class="st1" d="M415.8,286.5c0,1.4,1.2,2.6,2.6,2.6c1.4,0,2.6-1.2,2.6-2.6c0-1.4-1.2-2.6-2.6-2.6
		C417,283.9,415.8,285.1,415.8,286.5z"/>
	<path class="st1" d="M422.3,285.9c0,1.4,1.2,2.6,2.6,2.6c1.4,0,2.6-1.2,2.6-2.6c0-1.4-1.2-2.6-2.6-2.6
		C423.4,283.3,422.3,284.5,422.3,285.9z"/>
	<path class="st1" d="M421.7,289.8c0,1.4,1.2,2.6,2.6,2.6c1.4,0,2.6-1.2,2.6-2.6c0-1.4-1.2-2.6-2.6-2.6
		C422.8,287.2,421.7,288.3,421.7,289.8z"/>
	<path class="st1" d="M417.8,294c0,1.4,1.2,2.6,2.6,2.6c1.4,0,2.6-1.2,2.6-2.6c0-1.4-1.2-2.6-2.6-2.6
		C419,291.4,417.8,292.6,417.8,294z"/>
	<path class="st1" d="M409.9,295.2c0,1.4,1.2,2.6,2.6,2.6c1.4,0,2.6-1.2,2.6-2.6c0-1.4-1.2-2.6-2.6-2.6
		C411.1,292.7,409.9,293.8,409.9,295.2z"/>
	<path class="st1" d="M403.4,289.8c0,1.4,1.2,2.6,2.6,2.6c1.4,0,2.6-1.2,2.6-2.6c0-1.4-1.2-2.6-2.6-2.6
		C404.6,287.2,403.4,288.3,403.4,289.8z"/>
	<path class="st1" d="M409.9,284.6c0,1.4,1.2,2.6,2.6,2.6c1.4,0,2.6-1.2,2.6-2.6c0-1.4-1.2-2.6-2.6-2.6
		C411.1,282,409.9,283.2,409.9,284.6z"/>
	<path class="st1" d="M397.5,268.7c0,1.4,1.2,2.6,2.6,2.6c1.4,0,2.6-1.2,2.6-2.6c0-1.4-1.2-2.6-2.6-2.6
		C398.7,266.1,397.5,267.2,397.5,268.7z"/>
	<path class="st1" d="M404.7,264c0,1.4,1.2,2.6,2.6,2.6c1.4,0,2.6-1.2,2.6-2.6s-1.2-2.6-2.6-2.6C405.8,261.4,404.7,262.5,404.7,264z
		"/>
	<path class="st1" d="M404.7,272.8c0,1.4,1.2,2.6,2.6,2.6c1.4,0,2.6-1.2,2.6-2.6c0-1.4-1.2-2.6-2.6-2.6
		C405.8,270.2,404.7,271.3,404.7,272.8z"/>
	<path class="st1" d="M380,265c0,1.4,1.2,2.6,2.6,2.6c1.4,0,2.6-1.2,2.6-2.6c0-1.4-1.2-2.6-2.6-2.6C381.1,262.5,380,263.6,380,265z"
		/>
	<path class="st1" d="M402.1,296.6c0,1.4,1.2,2.6,2.6,2.6c1.4,0,2.6-1.2,2.6-2.6c0-1.4-1.2-2.6-2.6-2.6
		C403.3,294,402.1,295.1,402.1,296.6z"/>
	<path class="st1" d="M415.3,305.9c0,1.4,1.2,2.6,2.6,2.6c1.4,0,2.6-1.2,2.6-2.6c0-1.4-1.2-2.6-2.6-2.6
		C416.4,303.3,415.3,304.5,415.3,305.9z"/>
	<path class="st1" d="M423.5,303.1c0,1.4,1.2,2.6,2.6,2.6c1.4,0,2.6-1.2,2.6-2.6c0-1.4-1.2-2.6-2.6-2.6
		C424.7,300.6,423.5,301.7,423.5,303.1z"/>
	<path class="st1" d="M429.8,309.2c0,1.4,1.2,2.6,2.6,2.6c1.4,0,2.6-1.2,2.6-2.6c0-1.4-1.2-2.6-2.6-2.6
		C430.9,306.6,429.8,307.8,429.8,309.2z"/>
	<path class="st1" d="M432.4,302.1c0,1.4,1.2,2.6,2.6,2.6s2.6-1.2,2.6-2.6c0-1.4-1.2-2.6-2.6-2.6S432.4,300.7,432.4,302.1z"/>
	<path class="st1" d="M440.6,307.2c0,1.4,1.2,2.6,2.6,2.6c1.4,0,2.6-1.2,2.6-2.6c0-1.4-1.2-2.6-2.6-2.6
		C441.7,304.6,440.6,305.8,440.6,307.2z"/>
	<path class="st1" d="M436.7,314c0,1.4,1.2,2.6,2.6,2.6c1.4,0,2.6-1.2,2.6-2.6c0-1.4-1.2-2.6-2.6-2.6
		C437.9,311.4,436.7,312.5,436.7,314z"/>
	<path class="st1" d="M444.5,306c0,1.4,1.2,2.6,2.6,2.6c1.4,0,2.6-1.2,2.6-2.6c0-1.4-1.2-2.6-2.6-2.6
		C445.6,303.4,444.5,304.6,444.5,306z"/>
	<path class="st1" d="M426.1,311.8c0,1.4,1.2,2.6,2.6,2.6c1.4,0,2.6-1.2,2.6-2.6c0-1.4-1.2-2.6-2.6-2.6
		C427.2,309.2,426.1,310.4,426.1,311.8z"/>
	<path class="st1" d="M439.3,298.2c0,1.4,1.2,2.6,2.6,2.6c1.4,0,2.6-1.2,2.6-2.6s-1.2-2.6-2.6-2.6
		C440.5,295.7,439.3,296.8,439.3,298.2z"/>
	<path class="st1" d="M433.2,292.3c0,1.4,1.2,2.6,2.6,2.6c1.4,0,2.6-1.2,2.6-2.6c0-1.4-1.2-2.6-2.6-2.6
		C434.3,289.8,433.2,290.9,433.2,292.3z"/>
	<path class="st1" d="M430.6,284.1c0,1.4,1.2,2.6,2.6,2.6c1.4,0,2.6-1.2,2.6-2.6c0-1.4-1.2-2.6-2.6-2.6
		C431.8,281.6,430.6,282.7,430.6,284.1z"/>
	<path class="st1" d="M438.7,282.7c0,1.4,1.2,2.6,2.6,2.6c1.4,0,2.6-1.2,2.6-2.6c0-1.4-1.2-2.6-2.6-2.6
		C439.9,280.2,438.7,281.3,438.7,282.7z"/>
	<path class="st1" d="M441.3,277.6c0,1.4,1.2,2.6,2.6,2.6c1.4,0,2.6-1.2,2.6-2.6c0-1.4-1.2-2.6-2.6-2.6
		C442.5,275,441.3,276.2,441.3,277.6z"/>
	<path class="st1" d="M445.6,290.7c0,1.4,1.2,2.6,2.6,2.6c1.4,0,2.6-1.2,2.6-2.6s-1.2-2.6-2.6-2.6
		C446.7,288.1,445.6,289.3,445.6,290.7z"/>
	<path class="st1" d="M451.9,298.2c0,1.4,1.2,2.6,2.6,2.6c1.4,0,2.6-1.2,2.6-2.6s-1.2-2.6-2.6-2.6
		C453.1,295.7,451.9,296.8,451.9,298.2z"/>
	<path class="st1" d="M426.1,296.6c0,1.4,1.2,2.6,2.6,2.6c1.4,0,2.6-1.2,2.6-2.6c0-1.4-1.2-2.6-2.6-2.6
		C427.2,294,426.1,295.1,426.1,296.6z"/>
	<path class="st1" d="M450.8,306c0,1.4,1.2,2.6,2.6,2.6c1.4,0,2.6-1.2,2.6-2.6c0-1.4-1.2-2.6-2.6-2.6
		C452,303.4,450.8,304.6,450.8,306z"/>
	<path class="st1" d="M487.1,313.1c0,1.4,1.2,2.6,2.6,2.6c1.4,0,2.6-1.2,2.6-2.6c0-1.4-1.2-2.6-2.6-2.6
		C488.2,310.5,487.1,311.7,487.1,313.1z"/>
	<path class="st1" d="M491.6,309.2c0,1.4,1.2,2.6,2.6,2.6c1.4,0,2.6-1.2,2.6-2.6c0-1.4-1.2-2.6-2.6-2.6
		C492.8,306.6,491.6,307.8,491.6,309.2z"/>
	<path class="st1" d="M494.2,313.6c0,1.4,1.2,2.6,2.6,2.6c1.4,0,2.6-1.2,2.6-2.6c0-1.4-1.2-2.6-2.6-2.6
		C495.4,311,494.2,312.2,494.2,313.6z"/>
	<path class="st1" d="M492.3,316.7c0,1.4,1.2,2.6,2.6,2.6c1.4,0,2.6-1.2,2.6-2.6c0-1.4-1.2-2.6-2.6-2.6
		C493.5,314.1,492.3,315.3,492.3,316.7z"/>
	<path class="st1" d="M484.5,321.9c0,1.4,1.2,2.6,2.6,2.6c1.4,0,2.6-1.2,2.6-2.6c0-1.4-1.2-2.6-2.6-2.6
		C485.7,319.3,484.5,320.5,484.5,321.9z"/>
	<path class="st1" d="M487.1,317.1c0,1.4,1.2,2.6,2.6,2.6c1.4,0,2.6-1.2,2.6-2.6c0-1.4-1.2-2.6-2.6-2.6
		C488.2,314.5,487.1,315.6,487.1,317.1z"/>
	<path class="st1" d="M486.4,313.1c0,1.4,1.2,2.6,2.6,2.6c1.4,0,2.6-1.2,2.6-2.6c0-1.4-1.2-2.6-2.6-2.6
		C487.6,310.5,486.4,311.7,486.4,313.1z"/>
	<path class="st1" d="M482.5,308.8c0,1.4,1.2,2.6,2.6,2.6c1.4,0,2.6-1.2,2.6-2.6c0-1.4-1.2-2.6-2.6-2.6
		C483.7,306.2,482.5,307.4,482.5,308.8z"/>
	<path class="st1" d="M485.9,309.8c0,1.4,1.2,2.6,2.6,2.6c1.4,0,2.6-1.2,2.6-2.6c0-1.4-1.2-2.6-2.6-2.6
		C487.1,307.2,485.9,308.3,485.9,309.8z"/>
	<path class="st1" d="M488.5,306.6c0,1.4,1.2,2.6,2.6,2.6c1.4,0,2.6-1.2,2.6-2.6c0-1.4-1.2-2.6-2.6-2.6
		C489.7,304,488.5,305.2,488.5,306.6z"/>
	<path class="st1" d="M494.2,307.9c0,1.4,1.2,2.6,2.6,2.6c1.4,0,2.6-1.2,2.6-2.6c0-1.4-1.2-2.6-2.6-2.6
		C495.4,305.4,494.2,306.5,494.2,307.9z"/>
	<path class="st1" d="M499.4,311c0,1.4,1.2,2.6,2.6,2.6c1.4,0,2.6-1.2,2.6-2.6c0-1.4-1.2-2.6-2.6-2.6
		C500.5,308.5,499.4,309.6,499.4,311z"/>
	<path class="st1" d="M501.8,316.7c0,1.4,1.2,2.6,2.6,2.6c1.4,0,2.6-1.2,2.6-2.6c0-1.4-1.2-2.6-2.6-2.6
		C503,314.1,501.8,315.3,501.8,316.7z"/>
	<path class="st1" d="M500.8,323.1c0,1.4,1.2,2.6,2.6,2.6c1.4,0,2.6-1.2,2.6-2.6c0-1.4-1.2-2.6-2.6-2.6
		C501.9,320.5,500.8,321.6,500.8,323.1z"/>
	<path class="st1" d="M494.2,324.5c0,1.4,1.2,2.6,2.6,2.6c1.4,0,2.6-1.2,2.6-2.6s-1.2-2.6-2.6-2.6
		C495.4,322,494.2,323.1,494.2,324.5z"/>
	<path class="st1" d="M483.9,315.5c0,1.4,1.2,2.6,2.6,2.6c1.4,0,2.6-1.2,2.6-2.6c0-1.4-1.2-2.6-2.6-2.6
		C485,313,483.9,314.1,483.9,315.5z"/>
	<path class="st1" d="M497,300.8c0,1.4,1.2,2.6,2.6,2.6s2.6-1.2,2.6-2.6c0-1.4-1.2-2.6-2.6-2.6S497,299.4,497,300.8z"/>
	<path class="st1" d="M500.1,296c0,1.4,1.2,2.6,2.6,2.6c1.4,0,2.6-1.2,2.6-2.6c0-1.4-1.2-2.6-2.6-2.6
		C501.2,293.4,500.1,294.5,500.1,296z"/>
	<path class="st1" d="M505.9,287.2c0,1.4,1.2,2.6,2.6,2.6c1.4,0,2.6-1.2,2.6-2.6c0-1.4-1.2-2.6-2.6-2.6
		C507.1,284.6,505.9,285.7,505.9,287.2z"/>
	<path class="st1" d="M518.9,302.1c0,1.4,1.2,2.6,2.6,2.6c1.4,0,2.6-1.2,2.6-2.6c0-1.4-1.2-2.6-2.6-2.6
		C520,299.5,518.9,300.7,518.9,302.1z"/>
	<path class="st1" d="M472.9,319.3c0,1.4,1.2,2.6,2.6,2.6c1.4,0,2.6-1.2,2.6-2.6c0-1.4-1.2-2.6-2.6-2.6
		C474.1,316.7,472.9,317.9,472.9,319.3z"/>
	<path class="st1" d="M480.8,317.9c0,1.4,1.2,2.6,2.6,2.6c1.4,0,2.6-1.2,2.6-2.6c0-1.4-1.2-2.6-2.6-2.6
		C481.9,315.3,480.8,316.5,480.8,317.9z"/>
	<path class="st1" d="M472.9,313.1c0,1.4,1.2,2.6,2.6,2.6c1.4,0,2.6-1.2,2.6-2.6c0-1.4-1.2-2.6-2.6-2.6
		C474.1,310.5,472.9,311.7,472.9,313.1z"/>
	<path class="st1" d="M473.3,307.2c0,1.4,1.2,2.6,2.6,2.6c1.4,0,2.6-1.2,2.6-2.6c0-1.4-1.2-2.6-2.6-2.6
		C474.5,304.6,473.3,305.8,473.3,307.2z"/>
	<path class="st1" d="M478.2,303.4c0,1.4,1.2,2.6,2.6,2.6c1.4,0,2.6-1.2,2.6-2.6c0-1.4-1.2-2.6-2.6-2.6
		C479.3,300.8,478.2,302,478.2,303.4z"/>
	<path class="st1" d="M483.9,300.1c0,1.4,1.2,2.6,2.6,2.6c1.4,0,2.6-1.2,2.6-2.6c0-1.4-1.2-2.6-2.6-2.6
		C485,297.6,483.9,298.7,483.9,300.1z"/>
	<path class="st1" d="M492.3,300.1c0,1.4,1.2,2.6,2.6,2.6c1.4,0,2.6-1.2,2.6-2.6c0-1.4-1.2-2.6-2.6-2.6
		C493.5,297.6,492.3,298.7,492.3,300.1z"/>
	<path class="st1" d="M498.2,303.4c0,1.4,1.2,2.6,2.6,2.6c1.4,0,2.6-1.2,2.6-2.6c0-1.4-1.2-2.6-2.6-2.6
		C499.3,300.8,498.2,302,498.2,303.4z"/>
	<path class="st1" d="M505,305.4c0,1.4,1.2,2.6,2.6,2.6s2.6-1.2,2.6-2.6c0-1.4-1.2-2.6-2.6-2.6S505,303.9,505,305.4z"/>
	<path class="st1" d="M505.9,310.5c0,1.4,1.2,2.6,2.6,2.6c1.4,0,2.6-1.2,2.6-2.6c0-1.4-1.2-2.6-2.6-2.6
		C507.1,307.9,505.9,309.1,505.9,310.5z"/>
	<path class="st1" d="M503.8,313.1c0,1.4,1.2,2.6,2.6,2.6c1.4,0,2.6-1.2,2.6-2.6c0-1.4-1.2-2.6-2.6-2.6
		C505,310.5,503.8,311.7,503.8,313.1z"/>
	<path class="st1" d="M506.4,320.5c0,1.4,1.2,2.6,2.6,2.6c1.4,0,2.6-1.2,2.6-2.6c0-1.4-1.2-2.6-2.6-2.6
		C507.5,317.9,506.4,319.1,506.4,320.5z"/>
	<path class="st1" d="M511.1,327.1c0,1.4,1.2,2.6,2.6,2.6c1.4,0,2.6-1.2,2.6-2.6c0-1.4-1.2-2.6-2.6-2.6
		C512.3,324.5,511.1,325.7,511.1,327.1z"/>
	<path class="st1" d="M507.5,332.3c0,1.4,1.2,2.6,2.6,2.6c1.4,0,2.6-1.2,2.6-2.6c0-1.4-1.2-2.6-2.6-2.6
		C508.7,329.7,507.5,330.9,507.5,332.3z"/>
	<path class="st1" d="M496.8,334.3c0,1.4,1.2,2.6,2.6,2.6c1.4,0,2.6-1.2,2.6-2.6c0-1.4-1.2-2.6-2.6-2.6
		C497.9,331.7,496.8,332.8,496.8,334.3z"/>
	<path class="st1" d="M503.3,331c0,1.4,1.2,2.6,2.6,2.6c1.4,0,2.6-1.2,2.6-2.6c0-1.4-1.2-2.6-2.6-2.6
		C504.5,328.4,503.3,329.5,503.3,331z"/>
	<path class="st1" d="M484.5,335.6c0,1.4,1.2,2.6,2.6,2.6c1.4,0,2.6-1.2,2.6-2.6c0-1.4-1.2-2.6-2.6-2.6
		C485.7,333,484.5,334.2,484.5,335.6z"/>
	<path class="st1" d="M478.2,331c0,1.4,1.2,2.6,2.6,2.6c1.4,0,2.6-1.2,2.6-2.6c0-1.4-1.2-2.6-2.6-2.6
		C479.3,328.4,478.2,329.5,478.2,331z"/>
	<path class="st1" d="M476.5,325c0,1.4,1.2,2.6,2.6,2.6c1.4,0,2.6-1.2,2.6-2.6c0-1.4-1.2-2.6-2.6-2.6
		C477.6,322.4,476.5,323.6,476.5,325z"/>
	<path class="st1" d="M469.9,324.5c0,1.4,1.2,2.6,2.6,2.6c1.4,0,2.6-1.2,2.6-2.6s-1.2-2.6-2.6-2.6
		C471.1,322,469.9,323.1,469.9,324.5z"/>
	<path class="st1" d="M464.7,317c0,1.4,1.2,2.6,2.6,2.6c1.4,0,2.6-1.2,2.6-2.6c0-1.4-1.2-2.6-2.6-2.6
		C465.9,314.4,464.7,315.5,464.7,317z"/>
	<path class="st1" d="M465.9,308.8c0,1.4,1.2,2.6,2.6,2.6c1.4,0,2.6-1.2,2.6-2.6c0-1.4-1.2-2.6-2.6-2.6
		C467,306.2,465.9,307.4,465.9,308.8z"/>
	<path class="st1" d="M467.9,302.1c0,1.4,1.2,2.6,2.6,2.6c1.4,0,2.6-1.2,2.6-2.6c0-1.4-1.2-2.6-2.6-2.6
		C469,299.5,467.9,300.7,467.9,302.1z"/>
	<path class="st1" d="M474.7,299.2c0,1.4,1.2,2.6,2.6,2.6c1.4,0,2.6-1.2,2.6-2.6c0-1.4-1.2-2.6-2.6-2.6
		C475.8,296.6,474.7,297.7,474.7,299.2z"/>
	<path class="st1" d="M478.2,293.3c0,1.4,1.2,2.6,2.6,2.6c1.4,0,2.6-1.2,2.6-2.6c0-1.4-1.2-2.6-2.6-2.6
		C479.3,290.7,478.2,291.8,478.2,293.3z"/>
	<path class="st1" d="M486.4,296.2c0,1.4,1.2,2.6,2.6,2.6c1.4,0,2.6-1.2,2.6-2.6c0-1.4-1.2-2.6-2.6-2.6
		C487.6,293.6,486.4,294.8,486.4,296.2z"/>
	<path class="st1" d="M496.8,294.9c0,1.4,1.2,2.6,2.6,2.6c1.4,0,2.6-1.2,2.6-2.6c0-1.4-1.2-2.6-2.6-2.6
		C497.9,292.3,496.8,293.5,496.8,294.9z"/>
	<path class="st1" d="M501.8,300.1c0,1.4,1.2,2.6,2.6,2.6c1.4,0,2.6-1.2,2.6-2.6c0-1.4-1.2-2.6-2.6-2.6
		C503,297.6,501.8,298.7,501.8,300.1z"/>
	<path class="st1" d="M507.5,301.7c0,1.4,1.2,2.6,2.6,2.6c1.4,0,2.6-1.2,2.6-2.6c0-1.4-1.2-2.6-2.6-2.6
		C508.7,299.1,507.5,300.2,507.5,301.7z"/>
	<path class="st1" d="M513.7,309.2c0,1.4,1.2,2.6,2.6,2.6c1.4,0,2.6-1.2,2.6-2.6c0-1.4-1.2-2.6-2.6-2.6
		C514.8,306.6,513.7,307.8,513.7,309.2z"/>
	<path class="st1" d="M516.3,318.8c0,1.4,1.2,2.6,2.6,2.6c1.4,0,2.6-1.2,2.6-2.6c0-1.4-1.2-2.6-2.6-2.6
		C517.4,316.2,516.3,317.4,516.3,318.8z"/>
	<path class="st1" d="M521.4,325.7c0,1.4,1.2,2.6,2.6,2.6s2.6-1.2,2.6-2.6c0-1.4-1.2-2.6-2.6-2.6S521.4,324.2,521.4,325.7z"/>
	<path class="st1" d="M516.6,333c0,1.4,1.2,2.6,2.6,2.6c1.4,0,2.6-1.2,2.6-2.6c0-1.4-1.2-2.6-2.6-2.6
		C517.8,330.4,516.6,331.6,516.6,333z"/>
	<path class="st1" d="M521.4,335.4c0,1.4,1.2,2.6,2.6,2.6s2.6-1.2,2.6-2.6c0-1.4-1.2-2.6-2.6-2.6S521.4,333.9,521.4,335.4z"/>
	<path class="st1" d="M524.5,330.4c0,1.4,1.2,2.6,2.6,2.6c1.4,0,2.6-1.2,2.6-2.6c0-1.4-1.2-2.6-2.6-2.6
		C525.7,327.8,524.5,329,524.5,330.4z"/>
	<path class="st1" d="M525.2,322.2c0,1.4,1.2,2.6,2.6,2.6s2.6-1.2,2.6-2.6c0-1.4-1.2-2.6-2.6-2.6S525.2,320.8,525.2,322.2z"/>
	<path class="st1" d="M523,315.3c0,1.4,1.2,2.6,2.6,2.6c1.4,0,2.6-1.2,2.6-2.6c0-1.4-1.2-2.6-2.6-2.6
		C524.1,312.7,523,313.9,523,315.3z"/>
	<path class="st1" d="M523.6,307.2c0,1.4,1.2,2.6,2.6,2.6c1.4,0,2.6-1.2,2.6-2.6c0-1.4-1.2-2.6-2.6-2.6
		C524.8,304.6,523.6,305.8,523.6,307.2z"/>
	<path class="st1" d="M519.2,297.6c0,1.4,1.2,2.6,2.6,2.6s2.6-1.2,2.6-2.6c0-1.4-1.2-2.6-2.6-2.6S519.2,296.1,519.2,297.6z"/>
	<path class="st1" d="M511.1,294.9c0,1.4,1.2,2.6,2.6,2.6c1.4,0,2.6-1.2,2.6-2.6c0-1.4-1.2-2.6-2.6-2.6
		C512.3,292.3,511.1,293.5,511.1,294.9z"/>
	<path class="st1" d="M511.1,285.9c0,1.4,1.2,2.6,2.6,2.6c1.4,0,2.6-1.2,2.6-2.6c0-1.4-1.2-2.6-2.6-2.6
		C512.3,283.3,511.1,284.5,511.1,285.9z"/>
	<path class="st1" d="M517.8,289.8c0,1.4,1.2,2.6,2.6,2.6c1.4,0,2.6-1.2,2.6-2.6c0-1.4-1.2-2.6-2.6-2.6
		C519,287.2,517.8,288.3,517.8,289.8z"/>
	<path class="st1" d="M501.8,288.5c0,1.4,1.2,2.6,2.6,2.6c1.4,0,2.6-1.2,2.6-2.6c0-1.4-1.2-2.6-2.6-2.6
		C503,285.9,501.8,287.1,501.8,288.5z"/>
	<path class="st1" d="M495.6,283.3c0,1.4,1.2,2.6,2.6,2.6c1.4,0,2.6-1.2,2.6-2.6c0-1.4-1.2-2.6-2.6-2.6
		C496.8,280.8,495.6,281.9,495.6,283.3z"/>
	<path class="st1" d="M503.3,281.6c0,1.4,1.2,2.6,2.6,2.6c1.4,0,2.6-1.2,2.6-2.6c0-1.4-1.2-2.6-2.6-2.6
		C504.5,279,503.3,280.1,503.3,281.6z"/>
	<path class="st1" d="M490.4,290.1c0,1.4,1.2,2.6,2.6,2.6c1.4,0,2.6-1.2,2.6-2.6c0-1.4-1.2-2.6-2.6-2.6
		C491.6,287.5,490.4,288.6,490.4,290.1z"/>
	<path class="st1" d="M487.9,284.6c0,1.4,1.2,2.6,2.6,2.6c1.4,0,2.6-1.2,2.6-2.6c0-1.4-1.2-2.6-2.6-2.6
		C489,282,487.9,283.2,487.9,284.6z"/>
	<path class="st1" d="M481.3,286.5c0,1.4,1.2,2.6,2.6,2.6c1.4,0,2.6-1.2,2.6-2.6c0-1.4-1.2-2.6-2.6-2.6
		C482.4,283.9,481.3,285.1,481.3,286.5z"/>
	<path class="st1" d="M473.9,288.5c0,1.4,1.2,2.6,2.6,2.6c1.4,0,2.6-1.2,2.6-2.6c0-1.4-1.2-2.6-2.6-2.6
		C475.1,285.9,473.9,287.1,473.9,288.5z"/>
	<path class="st1" d="M473.3,294.2c0,1.4,1.2,2.6,2.6,2.6c1.4,0,2.6-1.2,2.6-2.6c0-1.4-1.2-2.6-2.6-2.6
		C474.5,291.7,473.3,292.8,473.3,294.2z"/>
	<path class="st1" d="M502.4,293.3c0,1.4,1.2,2.6,2.6,2.6c1.4,0,2.6-1.2,2.6-2.6c0-1.4-1.2-2.6-2.6-2.6
		C503.5,290.7,502.4,291.8,502.4,293.3z"/>
	<path class="st1" d="M506.4,296.9c0,1.4,1.2,2.6,2.6,2.6c1.4,0,2.6-1.2,2.6-2.6c0-1.4-1.2-2.6-2.6-2.6
		C507.5,294.4,506.4,295.5,506.4,296.9z"/>
	<path class="st1" d="M513.7,302.1c0,1.4,1.2,2.6,2.6,2.6c1.4,0,2.6-1.2,2.6-2.6c0-1.4-1.2-2.6-2.6-2.6
		C514.8,299.5,513.7,300.7,513.7,302.1z"/>
	<path class="st1" d="M511.1,306.6c0,1.4,1.2,2.6,2.6,2.6c1.4,0,2.6-1.2,2.6-2.6c0-1.4-1.2-2.6-2.6-2.6
		C512.3,304,511.1,305.2,511.1,306.6z"/>
	<path class="st1" d="M510.6,312.7c0,1.4,1.2,2.6,2.6,2.6c1.4,0,2.6-1.2,2.6-2.6c0-1.4-1.2-2.6-2.6-2.6
		C511.7,310.2,510.6,311.3,510.6,312.7z"/>
	<path class="st1" d="M510.6,317.5c0,1.4,1.2,2.6,2.6,2.6c1.4,0,2.6-1.2,2.6-2.6c0-1.4-1.2-2.6-2.6-2.6
		C511.7,314.9,510.6,316.1,510.6,317.5z"/>
	<path class="st1" d="M518.9,317c0,1.4,1.2,2.6,2.6,2.6c1.4,0,2.6-1.2,2.6-2.6c0-1.4-1.2-2.6-2.6-2.6
		C520,314.4,518.9,315.5,518.9,317z"/>
	<path class="st1" d="M519.2,311.6c0,1.4,1.2,2.6,2.6,2.6s2.6-1.2,2.6-2.6c0-1.4-1.2-2.6-2.6-2.6S519.2,310.2,519.2,311.6z"/>
	<path class="st1" d="M519.3,305.4c0,1.4,1.2,2.6,2.6,2.6c1.4,0,2.6-1.2,2.6-2.6c0-1.4-1.2-2.6-2.6-2.6
		C520.5,302.8,519.3,303.9,519.3,305.4z"/>
	<path class="st1" d="M497.5,319.6c0,1.4,1.2,2.6,2.6,2.6c1.4,0,2.6-1.2,2.6-2.6c0-1.4-1.2-2.6-2.6-2.6
		C498.6,317.1,497.5,318.2,497.5,319.6z"/>
	<path class="st1" d="M485.3,328.2c0,1.4,1.2,2.6,2.6,2.6c1.4,0,2.6-1.2,2.6-2.6c0-1.4-1.2-2.6-2.6-2.6
		C486.4,325.7,485.3,326.8,485.3,328.2z"/>
	<path class="st1" d="M500.8,330.4c0,1.4,1.2,2.6,2.6,2.6c1.4,0,2.6-1.2,2.6-2.6c0-1.4-1.2-2.6-2.6-2.6
		C501.9,327.8,500.8,329,500.8,330.4z"/>
	<path class="st1" d="M511.1,332.3c0,1.4,1.2,2.6,2.6,2.6c1.4,0,2.6-1.2,2.6-2.6c0-1.4-1.2-2.6-2.6-2.6
		C512.3,329.7,511.1,330.9,511.1,332.3z"/>
	<path class="st1" d="M478.2,322.1c0,1.4,1.2,2.6,2.6,2.6c1.4,0,2.6-1.2,2.6-2.6c0-1.4-1.2-2.6-2.6-2.6
		C479.3,319.5,478.2,320.7,478.2,322.1z"/>
	<path class="st1" d="M476.5,307.9c0,1.4,1.2,2.6,2.6,2.6c1.4,0,2.6-1.2,2.6-2.6c0-1.4-1.2-2.6-2.6-2.6
		C477.6,305.4,476.5,306.5,476.5,307.9z"/>
	<path class="st1" d="M525.5,302.1c0,1.4,1.2,2.6,2.6,2.6c1.4,0,2.6-1.2,2.6-2.6c0-1.4-1.2-2.6-2.6-2.6
		C526.7,299.5,525.5,300.7,525.5,302.1z"/>
	<path class="st1" d="M525.5,294.4c0,1.4,1.2,2.6,2.6,2.6c1.4,0,2.6-1.2,2.6-2.6c0-1.4-1.2-2.6-2.6-2.6
		C526.7,291.8,525.5,292.9,525.5,294.4z"/>
	<path class="st1" d="M519.3,293.6c0,1.4,1.2,2.6,2.6,2.6c1.4,0,2.6-1.2,2.6-2.6s-1.2-2.6-2.6-2.6
		C520.5,291,519.3,292.2,519.3,293.6z"/>
	<path class="st1" d="M519.2,285.3c0,1.4,1.2,2.6,2.6,2.6s2.6-1.2,2.6-2.6c0-1.4-1.2-2.6-2.6-2.6S519.2,283.9,519.2,285.3z"/>
	<path class="st1" d="M525.5,289.8c0,1.4,1.2,2.6,2.6,2.6c1.4,0,2.6-1.2,2.6-2.6c0-1.4-1.2-2.6-2.6-2.6
		C526.7,287.2,525.5,288.3,525.5,289.8z"/>
	<path class="st1" d="M529.7,306.8c0,1.4,1.2,2.6,2.6,2.6c1.4,0,2.6-1.2,2.6-2.6c0-1.4-1.2-2.6-2.6-2.6
		C530.8,304.3,529.7,305.4,529.7,306.8z"/>
	<path class="st1" d="M529.7,313c0,1.4,1.2,2.6,2.6,2.6c1.4,0,2.6-1.2,2.6-2.6c0-1.4-1.2-2.6-2.6-2.6
		C530.8,310.4,529.7,311.5,529.7,313z"/>
	<path class="st1" d="M528.1,317.5c0,1.4,1.2,2.6,2.6,2.6c1.4,0,2.6-1.2,2.6-2.6c0-1.4-1.2-2.6-2.6-2.6
		C529.3,314.9,528.1,316.1,528.1,317.5z"/>
	<path class="st1" d="M513.7,327.1c0,1.4,1.2,2.6,2.6,2.6c1.4,0,2.6-1.2,2.6-2.6c0-1.4-1.2-2.6-2.6-2.6
		C514.8,324.5,513.7,325.7,513.7,327.1z"/>
	<path class="st1" d="M512.1,321.9c0,1.4,1.2,2.6,2.6,2.6c1.4,0,2.6-1.2,2.6-2.6c0-1.4-1.2-2.6-2.6-2.6
		C513.3,319.3,512.1,320.5,512.1,321.9z"/>
	<path class="st1" d="M502.4,326.5c0,1.4,1.2,2.6,2.6,2.6c1.4,0,2.6-1.2,2.6-2.6c0-1.4-1.2-2.6-2.6-2.6
		C503.5,323.9,502.4,325,502.4,326.5z"/>
	<path class="st1" d="M496.2,330.4c0,1.4,1.2,2.6,2.6,2.6c1.4,0,2.6-1.2,2.6-2.6c0-1.4-1.2-2.6-2.6-2.6
		C497.3,327.8,496.2,329,496.2,330.4z"/>
	<path class="st1" d="M497.5,337.5c0,1.4,1.2,2.6,2.6,2.6c1.4,0,2.6-1.2,2.6-2.6c0-1.4-1.2-2.6-2.6-2.6
		C498.6,335,497.5,336.1,497.5,337.5z"/>
	<path class="st1" d="M514.7,337.5c0,1.4,1.2,2.6,2.6,2.6c1.4,0,2.6-1.2,2.6-2.6c0-1.4-1.2-2.6-2.6-2.6
		C515.8,335,514.7,336.1,514.7,337.5z"/>
	<path class="st1" d="M478.2,335c0,1.4,1.2,2.6,2.6,2.6c1.4,0,2.6-1.2,2.6-2.6c0-1.4-1.2-2.6-2.6-2.6
		C479.3,332.4,478.2,333.5,478.2,335z"/>
	<path class="st1" d="M478.2,314.9c0,1.4,1.2,2.6,2.6,2.6c1.4,0,2.6-1.2,2.6-2.6c0-1.4-1.2-2.6-2.6-2.6
		C479.3,312.3,478.2,313.5,478.2,314.9z"/>
	<path class="st1" d="M464.3,320.5c0,1.4,1.2,2.6,2.6,2.6c1.4,0,2.6-1.2,2.6-2.6c0-1.4-1.2-2.6-2.6-2.6
		C465.5,317.9,464.3,319.1,464.3,320.5z"/>
	<path class="st1" d="M531.1,300.1c0,1.4,1.2,2.6,2.6,2.6c1.4,0,2.6-1.2,2.6-2.6c0-1.4-1.2-2.6-2.6-2.6
		C532.3,297.6,531.1,298.7,531.1,300.1z"/>
	<path class="st1" d="M530.7,325c0,1.4,1.2,2.6,2.6,2.6c1.4,0,2.6-1.2,2.6-2.6c0-1.4-1.2-2.6-2.6-2.6
		C531.9,322.4,530.7,323.6,530.7,325z"/>
	<path class="st1" d="M483.3,279c0,1.4,1.2,2.6,2.6,2.6c1.4,0,2.6-1.2,2.6-2.6c0-1.4-1.2-2.6-2.6-2.6
		C484.5,276.4,483.3,277.5,483.3,279z"/>
	<path class="st1" d="M490,279.1c0,1.4,1.2,2.6,2.6,2.6c1.4,0,2.6-1.2,2.6-2.6c0-1.4-1.2-2.6-2.6-2.6
		C491.1,276.5,490,277.7,490,279.1z"/>
	<path class="st1" d="M496.8,279c0,1.4,1.2,2.6,2.6,2.6c1.4,0,2.6-1.2,2.6-2.6c0-1.4-1.2-2.6-2.6-2.6
		C497.9,276.4,496.8,277.5,496.8,279z"/>
	<path class="st1" d="M505.9,278.5c0,1.4,1.2,2.6,2.6,2.6c1.4,0,2.6-1.2,2.6-2.6c0-1.4-1.2-2.6-2.6-2.6
		C507.1,276,505.9,277.1,505.9,278.5z"/>
	<path class="st1" d="M510.1,289.8c0,1.4,1.2,2.6,2.6,2.6c1.4,0,2.6-1.2,2.6-2.6c0-1.4-1.2-2.6-2.6-2.6
		C511.3,287.2,510.1,288.3,510.1,289.8z"/>
	<path class="st1" d="M490,293.6c0,1.4,1.2,2.6,2.6,2.6c1.4,0,2.6-1.2,2.6-2.6s-1.2-2.6-2.6-2.6C491.1,291,490,292.2,490,293.6z"/>
	<path class="st1" d="M480.8,293.6c0,1.4,1.2,2.6,2.6,2.6c1.4,0,2.6-1.2,2.6-2.6s-1.2-2.6-2.6-2.6
		C481.9,291,480.8,292.2,480.8,293.6z"/>
	<path class="st1" d="M462.2,312.3c0,1.4,1.2,2.6,2.6,2.6c1.4,0,2.6-1.2,2.6-2.6c0-1.4-1.2-2.6-2.6-2.6
		C463.3,309.7,462.2,310.9,462.2,312.3z"/>
	<path class="st1" d="M487.9,333.5c0,1.4,1.2,2.6,2.6,2.6c1.4,0,2.6-1.2,2.6-2.6c0-1.4-1.2-2.6-2.6-2.6
		C489,331,487.9,332.1,487.9,333.5z"/>
	<path class="st1" d="M489.7,325.7c0,1.4,1.2,2.6,2.6,2.6c1.4,0,2.6-1.2,2.6-2.6c0-1.4-1.2-2.6-2.6-2.6
		C490.8,323.1,489.7,324.2,489.7,325.7z"/>
	<path class="st1" d="M491.6,339c0,1.4,1.2,2.6,2.6,2.6c1.4,0,2.6-1.2,2.6-2.6c0-1.4-1.2-2.6-2.6-2.6
		C492.8,336.4,491.6,337.6,491.6,339z"/>
	<path class="st1" d="M532.6,319.5c0,1.4,1.2,2.6,2.6,2.6c1.4,0,2.6-1.2,2.6-2.6c0-1.4-1.2-2.6-2.6-2.6
		C533.8,317,532.6,318.1,532.6,319.5z"/>
	<path class="st1" d="M526.2,311.8c0,1.4,1.2,2.6,2.6,2.6c1.4,0,2.6-1.2,2.6-2.6c0-1.4-1.2-2.6-2.6-2.6
		C527.4,309.2,526.2,310.4,526.2,311.8z"/>
	<path class="st1" d="M522.4,300.1c0,1.4,1.2,2.6,2.6,2.6c1.4,0,2.6-1.2,2.6-2.6c0-1.4-1.2-2.6-2.6-2.6
		C523.5,297.6,522.4,298.7,522.4,300.1z"/>
	<path class="st1" d="M516.3,297.5c0,1.4,1.2,2.6,2.6,2.6c1.4,0,2.6-1.2,2.6-2.6c0-1.4-1.2-2.6-2.6-2.6
		C517.4,294.9,516.3,296.1,516.3,297.5z"/>
	<path class="st1" d="M515.2,289.8c0,1.4,1.2,2.6,2.6,2.6c1.4,0,2.6-1.2,2.6-2.6c0-1.4-1.2-2.6-2.6-2.6
		C516.4,287.2,515.2,288.3,515.2,289.8z"/>
	<path class="st1" d="M525,285.9c0,1.4,1.2,2.6,2.6,2.6c1.4,0,2.6-1.2,2.6-2.6c0-1.4-1.2-2.6-2.6-2.6
		C526.1,283.3,525,284.5,525,285.9z"/>
	<path class="st1" d="M528.8,283.3c0,1.4,1.2,2.6,2.6,2.6c1.4,0,2.6-1.2,2.6-2.6c0-1.4-1.2-2.6-2.6-2.6
		C530,280.8,528.8,281.9,528.8,283.3z"/>
	<path class="st1" d="M531.1,289.1c0,1.4,1.2,2.6,2.6,2.6c1.4,0,2.6-1.2,2.6-2.6c0-1.4-1.2-2.6-2.6-2.6
		C532.3,286.5,531.1,287.7,531.1,289.1z"/>
	<path class="st1" d="M532.3,297.5c0,1.4,1.2,2.6,2.6,2.6c1.4,0,2.6-1.2,2.6-2.6c0-1.4-1.2-2.6-2.6-2.6
		C533.4,294.9,532.3,296.1,532.3,297.5z"/>
	<path class="st1" d="M534.2,308.5c0,1.4,1.2,2.6,2.6,2.6c1.4,0,2.6-1.2,2.6-2.6c0-1.4-1.2-2.6-2.6-2.6
		C535.4,305.9,534.2,307,534.2,308.5z"/>
	<path class="st1" d="M535.9,316.7c0,1.4,1.2,2.6,2.6,2.6c1.4,0,2.6-1.2,2.6-2.6c0-1.4-1.2-2.6-2.6-2.6
		C537,314.1,535.9,315.3,535.9,316.7z"/>
	<path class="st1" d="M498.2,286.5c0,1.4,1.2,2.6,2.6,2.6c1.4,0,2.6-1.2,2.6-2.6c0-1.4-1.2-2.6-2.6-2.6
		C499.3,283.9,498.2,285.1,498.2,286.5z"/>
	<path class="st1" d="M494.1,291c0,1.4,1.2,2.6,2.6,2.6c1.4,0,2.6-1.2,2.6-2.6c0-1.4-1.2-2.6-2.6-2.6
		C495.3,288.5,494.1,289.6,494.1,291z"/>
	<path class="st1" d="M489,300.8c0,1.4,1.2,2.6,2.6,2.6c1.4,0,2.6-1.2,2.6-2.6c0-1.4-1.2-2.6-2.6-2.6
		C490.2,298.2,489,299.4,489,300.8z"/>
	<path class="st1" d="M485.9,290.7c0,1.4,1.2,2.6,2.6,2.6c1.4,0,2.6-1.2,2.6-2.6s-1.2-2.6-2.6-2.6
		C487.1,288.1,485.9,289.3,485.9,290.7z"/>
	<path class="st1" d="M481.9,298.8c0,1.4,1.2,2.6,2.6,2.6c1.4,0,2.6-1.2,2.6-2.6c0-1.4-1.2-2.6-2.6-2.6
		C483.1,296.2,481.9,297.4,481.9,298.8z"/>
	<path class="st1" d="M481.3,305.4c0,1.4,1.2,2.6,2.6,2.6c1.4,0,2.6-1.2,2.6-2.6c0-1.4-1.2-2.6-2.6-2.6
		C482.4,302.8,481.3,303.9,481.3,305.4z"/>
	<path class="st1" d="M478.2,311.6c0,1.4,1.2,2.6,2.6,2.6c1.4,0,2.6-1.2,2.6-2.6c0-1.4-1.2-2.6-2.6-2.6
		C479.3,309,478.2,310.2,478.2,311.6z"/>
	<path class="st1" d="M469.5,314c0,1.4,1.2,2.6,2.6,2.6c1.4,0,2.6-1.2,2.6-2.6c0-1.4-1.2-2.6-2.6-2.6
		C470.6,311.4,469.5,312.5,469.5,314z"/>
	<path class="st1" d="M491.1,322c0,1.4,1.2,2.6,2.6,2.6c1.4,0,2.6-1.2,2.6-2.6c0-1.4-1.2-2.6-2.6-2.6
		C492.2,319.4,491.1,320.5,491.1,322z"/>
	<path class="st1" d="M505.9,324.5c0,1.4,1.2,2.6,2.6,2.6c1.4,0,2.6-1.2,2.6-2.6c0-1.4-1.2-2.6-2.6-2.6
		C507.1,321.9,505.9,323,505.9,324.5z"/>
	<path class="st1" d="M524.5,304.2c0,1.4,1.2,2.6,2.6,2.6c1.4,0,2.6-1.2,2.6-2.6c0-1.4-1.2-2.6-2.6-2.6
		C525.7,301.7,524.5,302.8,524.5,304.2z"/>
	<path class="st1" d="M532.6,294.9c0,1.4,1.2,2.6,2.6,2.6c1.4,0,2.6-1.2,2.6-2.6c0-1.4-1.2-2.6-2.6-2.6
		C533.8,292.3,532.6,293.5,532.6,294.9z"/>
	<path class="st1" d="M507.5,339c0,1.4,1.2,2.6,2.6,2.6c1.4,0,2.6-1.2,2.6-2.6c0-1.4-1.2-2.6-2.6-2.6
		C508.7,336.4,507.5,337.6,507.5,339z"/>
	<path class="st1" d="M447.1,284.8c0,1.4,1.2,2.6,2.6,2.6c1.4,0,2.6-1.2,2.6-2.6c0-1.4-1.2-2.6-2.6-2.6
		C448.2,282.2,447.1,283.4,447.1,284.8z"/>
	<path class="st1" d="M453.4,285.3c0,1.4,1.2,2.6,2.6,2.6c1.4,0,2.6-1.2,2.6-2.6c0-1.4-1.2-2.6-2.6-2.6
		C454.6,282.8,453.4,283.9,453.4,285.3z"/>
	<path class="st1" d="M450.8,279c0,1.4,1.2,2.6,2.6,2.6c1.4,0,2.6-1.2,2.6-2.6c0-1.4-1.2-2.6-2.6-2.6
		C452,276.4,450.8,277.5,450.8,279z"/>
	<path class="st1" d="M457.1,289.1c0,1.4,1.2,2.6,2.6,2.6c1.4,0,2.6-1.2,2.6-2.6c0-1.4-1.2-2.6-2.6-2.6
		C458.2,286.5,457.1,287.7,457.1,289.1z"/>
	<path class="st1" d="M450.7,294.9c0,1.4,1.2,2.6,2.6,2.6c1.4,0,2.6-1.2,2.6-2.6c0-1.4-1.2-2.6-2.6-2.6
		C451.8,292.3,450.7,293.5,450.7,294.9z"/>
	<path class="st1" d="M404.7,311.4c0,1.4,1.2,2.6,2.6,2.6c1.4,0,2.6-1.2,2.6-2.6c0-1.4-1.2-2.6-2.6-2.6
		C405.8,308.8,404.7,310,404.7,311.4z"/>
	<path class="st1" d="M387.5,301.7c0,1.4,1.2,2.6,2.6,2.6c1.4,0,2.6-1.2,2.6-2.6c0-1.4-1.2-2.6-2.6-2.6
		C388.7,299.1,387.5,300.2,387.5,301.7z"/>
	<path class="st1" d="M395.6,304.2c0,1.4,1.2,2.6,2.6,2.6c1.4,0,2.6-1.2,2.6-2.6c0-1.4-1.2-2.6-2.6-2.6
		C396.8,301.7,395.6,302.8,395.6,304.2z"/>
	<path class="st1" d="M396.9,292.3c0,1.4,1.2,2.6,2.6,2.6c1.4,0,2.6-1.2,2.6-2.6c0-1.4-1.2-2.6-2.6-2.6
		C398.1,289.8,396.9,290.9,396.9,292.3z"/>
	<path class="st1" d="M482.8,101.3c0,1.4,1.2,2.6,2.6,2.6c1.4,0,2.6-1.2,2.6-2.6c0-1.4-1.2-2.6-2.6-2.6
		C483.9,98.7,482.8,99.9,482.8,101.3z"/>
	<path class="st1" d="M460.8,91.4c0,1.4,1.2,2.6,2.6,2.6c1.4,0,2.6-1.2,2.6-2.6c0-1.4-1.2-2.6-2.6-2.6C462,88.8,460.8,90,460.8,91.4
		z"/>
	<path class="st1" d="M565.9,323.9c0,1.4,1.2,2.6,2.6,2.6c1.4,0,2.6-1.2,2.6-2.6c0-1.4-1.2-2.6-2.6-2.6
		C567.1,321.3,565.9,322.5,565.9,323.9z"/>
	<path class="st1" d="M551,330.2c0,1.4,1.2,2.6,2.6,2.6c1.4,0,2.6-1.2,2.6-2.6c0-1.4-1.2-2.6-2.6-2.6
		C552.2,327.6,551,328.8,551,330.2z"/>
	<path class="st1" d="M543.3,333.5c0,1.4,1.2,2.6,2.6,2.6s2.6-1.2,2.6-2.6c0-1.4-1.2-2.6-2.6-2.6S543.3,332.1,543.3,333.5z"/>
	<path class="st1" d="M561.1,335.6c0,1.4,1.2,2.6,2.6,2.6c1.4,0,2.6-1.2,2.6-2.6c0-1.4-1.2-2.6-2.6-2.6
		C562.2,333,561.1,334.2,561.1,335.6z"/>
	<path class="st1" d="M571.6,340.1c0,1.4,1.2,2.6,2.6,2.6c1.4,0,2.6-1.2,2.6-2.6c0-1.4-1.2-2.6-2.6-2.6
		C572.8,337.6,571.6,338.7,571.6,340.1z"/>
	<path class="st1" d="M581.4,333.5c0,1.4,1.2,2.6,2.6,2.6c1.4,0,2.6-1.2,2.6-2.6c0-1.4-1.2-2.6-2.6-2.6
		C582.5,331,581.4,332.1,581.4,333.5z"/>
	<path class="st1" d="M604.3,344.2c0,1.4,1.2,2.6,2.6,2.6c1.4,0,2.6-1.2,2.6-2.6c0-1.4-1.2-2.6-2.6-2.6
		C605.5,341.6,604.3,342.8,604.3,344.2z"/>
	<path class="st1" d="M617.2,341.6c0,1.4,1.2,2.6,2.6,2.6c1.4,0,2.6-1.2,2.6-2.6c0-1.4-1.2-2.6-2.6-2.6
		C618.3,339,617.2,340.2,617.2,341.6z"/>
	<path class="st1" d="M624.6,345.6c0,1.4,1.2,2.6,2.6,2.6c1.4,0,2.6-1.2,2.6-2.6c0-1.4-1.2-2.6-2.6-2.6
		C625.7,343,624.6,344.2,624.6,345.6z"/>
	<path class="st1" d="M627.6,336.8c0,1.4,1.2,2.6,2.6,2.6c1.4,0,2.6-1.2,2.6-2.6c0-1.4-1.2-2.6-2.6-2.6
		C628.8,334.3,627.6,335.4,627.6,336.8z"/>
	<path class="st1" d="M634.3,345.6c0,1.4,1.2,2.6,2.6,2.6c1.4,0,2.6-1.2,2.6-2.6c0-1.4-1.2-2.6-2.6-2.6
		C635.5,343,634.3,344.2,634.3,345.6z"/>
	<path class="st1" d="M622.3,355.4c0,1.4,1.2,2.6,2.6,2.6c1.4,0,2.6-1.2,2.6-2.6c0-1.4-1.2-2.6-2.6-2.6
		C623.5,352.8,622.3,354,622.3,355.4z"/>
	<path class="st1" d="M602.5,355.4c0,1.4,1.2,2.6,2.6,2.6c1.4,0,2.6-1.2,2.6-2.6c0-1.4-1.2-2.6-2.6-2.6
		C603.6,352.8,602.5,354,602.5,355.4z"/>
	<path class="st1" d="M593.4,352.4c0,1.4,1.2,2.6,2.6,2.6c1.4,0,2.6-1.2,2.6-2.6c0-1.4-1.2-2.6-2.6-2.6
		C594.5,349.8,593.4,351,593.4,352.4z"/>
	<path class="st1" d="M616,351.7c0,1.4,1.2,2.6,2.6,2.6c1.4,0,2.6-1.2,2.6-2.6c0-1.4-1.2-2.6-2.6-2.6
		C617.2,349.1,616,350.3,616,351.7z"/>
	<path class="st1" d="M636,356.2c0,1.4,1.2,2.6,2.6,2.6c1.4,0,2.6-1.2,2.6-2.6c0-1.4-1.2-2.6-2.6-2.6
		C637.2,353.6,636,354.8,636,356.2z"/>
	<path class="st1" d="M615.5,355.4c0,1.4,1.2,2.6,2.6,2.6c1.4,0,2.6-1.2,2.6-2.6c0-1.4-1.2-2.6-2.6-2.6
		C616.7,352.8,615.5,354,615.5,355.4z"/>
	<path class="st1" d="M605.6,340.1c0,1.4,1.2,2.6,2.6,2.6c1.4,0,2.6-1.2,2.6-2.6c0-1.4-1.2-2.6-2.6-2.6
		C606.8,337.6,605.6,338.7,605.6,340.1z"/>
	<path class="st1" d="M614.6,335c0,1.4,1.2,2.6,2.6,2.6c1.4,0,2.6-1.2,2.6-2.6c0-1.4-1.2-2.6-2.6-2.6
		C615.7,332.4,614.6,333.5,614.6,335z"/>
	<path class="st1" d="M580.7,325c0,1.4,1.2,2.6,2.6,2.6c1.4,0,2.6-1.2,2.6-2.6c0-1.4-1.2-2.6-2.6-2.6
		C581.9,322.4,580.7,323.6,580.7,325z"/>
	<path class="st1" d="M573,326.5c0,1.4,1.2,2.6,2.6,2.6c1.4,0,2.6-1.2,2.6-2.6c0-1.4-1.2-2.6-2.6-2.6C574.2,323.9,573,325,573,326.5
		z"/>
	<path class="st1" d="M465.5,167.1c0,1.4,1.2,2.6,2.6,2.6c1.4,0,2.6-1.2,2.6-2.6c0-1.4-1.2-2.6-2.6-2.6
		C466.6,164.5,465.5,165.6,465.5,167.1z"/>
	<path class="st1" d="M727.7,44.8c0,1.4,1.2,2.6,2.6,2.6c1.4,0,2.6-1.2,2.6-2.6c0-1.4-1.2-2.6-2.6-2.6
		C728.8,42.2,727.7,43.4,727.7,44.8z"/>
	<path class="st1" d="M718.2,47.4c0,1.4,1.2,2.6,2.6,2.6c1.4,0,2.6-1.2,2.6-2.6c0-1.4-1.2-2.6-2.6-2.6
		C719.4,44.8,718.2,46,718.2,47.4z"/>
	<path class="st1" d="M715.7,37.4c0,1.4,1.2,2.6,2.6,2.6c1.4,0,2.6-1.2,2.6-2.6c0-1.4-1.2-2.6-2.6-2.6
		C716.8,34.8,715.7,35.9,715.7,37.4z"/>
	<path class="st1" d="M726.8,32.9c0,1.4,1.2,2.6,2.6,2.6s2.6-1.2,2.6-2.6c0-1.4-1.2-2.6-2.6-2.6S726.8,31.5,726.8,32.9z"/>
	<path class="st1" d="M699.1,25.9c0,1.4,1.2,2.6,2.6,2.6c1.4,0,2.6-1.2,2.6-2.6c0-1.4-1.2-2.6-2.6-2.6
		C700.3,23.4,699.1,24.5,699.1,25.9z"/>
	<path class="st1" d="M701.7,13.9c0,1.4,1.2,2.6,2.6,2.6c1.4,0,2.6-1.2,2.6-2.6c0-1.4-1.2-2.6-2.6-2.6
		C702.9,11.4,701.7,12.5,701.7,13.9z"/>
	<path class="st1" d="M722.5,17.3c0,1.4,1.2,2.6,2.6,2.6c1.4,0,2.6-1.2,2.6-2.6c0-1.4-1.2-2.6-2.6-2.6
		C723.7,14.7,722.5,15.9,722.5,17.3z"/>
	<path class="st1" d="M733.7,12.7c0,1.4,1.2,2.6,2.6,2.6c1.4,0,2.6-1.2,2.6-2.6c0-1.4-1.2-2.6-2.6-2.6
		C734.8,10.1,733.7,11.3,733.7,12.7z"/>
	<path class="st1" d="M718.2,27.4c0,1.4,1.2,2.6,2.6,2.6c1.4,0,2.6-1.2,2.6-2.6c0-1.4-1.2-2.6-2.6-2.6
		C719.4,24.8,718.2,25.9,718.2,27.4z"/>
	<path class="st1" d="M704.3,32.9c0,1.4,1.2,2.6,2.6,2.6c1.4,0,2.6-1.2,2.6-2.6c0-1.4-1.2-2.6-2.6-2.6
		C705.4,30.3,704.3,31.5,704.3,32.9z"/>
	<path class="st1" d="M693.3,31.6c0,1.4,1.2,2.6,2.6,2.6c1.4,0,2.6-1.2,2.6-2.6c0-1.4-1.2-2.6-2.6-2.6
		C694.4,29,693.3,30.2,693.3,31.6z"/>
	<path class="st1" d="M703.7,39.7c0,1.4,1.2,2.6,2.6,2.6c1.4,0,2.6-1.2,2.6-2.6c0-1.4-1.2-2.6-2.6-2.6
		C704.9,37.1,703.7,38.2,703.7,39.7z"/>
	<path class="st1" d="M702.8,48.3c0,1.4,1.2,2.6,2.6,2.6c1.4,0,2.6-1.2,2.6-2.6c0-1.4-1.2-2.6-2.6-2.6
		C704,45.8,702.8,46.9,702.8,48.3z"/>
	<path class="st1" d="M711,42.5c0,1.4,1.2,2.6,2.6,2.6c1.4,0,2.6-1.2,2.6-2.6c0-1.4-1.2-2.6-2.6-2.6C712.1,40,711,41.1,711,42.5z"/>
	<path class="st1" d="M712,23.4c0,1.4,1.2,2.6,2.6,2.6c1.4,0,2.6-1.2,2.6-2.6c0-1.4-1.2-2.6-2.6-2.6C713.1,20.8,712,21.9,712,23.4z"
		/>
	<path class="st1" d="M730.3,22c0,1.4,1.2,2.6,2.6,2.6c1.4,0,2.6-1.2,2.6-2.6c0-1.4-1.2-2.6-2.6-2.6C731.4,19.4,730.3,20.6,730.3,22
		z"/>
	<path class="st1" d="M741.7,27.2c0,1.4,1.2,2.6,2.6,2.6s2.6-1.2,2.6-2.6c0-1.4-1.2-2.6-2.6-2.6S741.7,25.7,741.7,27.2z"/>
	<path class="st1" d="M739.9,39.7c0,1.4,1.2,2.6,2.6,2.6c1.4,0,2.6-1.2,2.6-2.6c0-1.4-1.2-2.6-2.6-2.6
		C741.1,37.1,739.9,38.2,739.9,39.7z"/>
	<path class="st1" d="M698.1,40c0,1.4,1.2,2.6,2.6,2.6c1.4,0,2.6-1.2,2.6-2.6c0-1.4-1.2-2.6-2.6-2.6C699.2,37.4,698.1,38.5,698.1,40
		z"/>
	<path class="st1" d="M969.3,238.1c0,1.4,1.2,2.6,2.6,2.6c1.4,0,2.6-1.2,2.6-2.6c0-1.4-1.2-2.6-2.6-2.6
		C970.4,235.5,969.3,236.7,969.3,238.1z"/>
	<path class="st1" d="M984.7,236.4c0,1.4,1.2,2.6,2.6,2.6c1.4,0,2.6-1.2,2.6-2.6c0-1.4-1.2-2.6-2.6-2.6
		C985.9,233.8,984.7,234.9,984.7,236.4z"/>
	<path class="st1" d="M983.8,243.3c0,1.4,1.2,2.6,2.6,2.6c1.4,0,2.6-1.2,2.6-2.6s-1.2-2.6-2.6-2.6
		C985,240.7,983.8,241.8,983.8,243.3z"/>
	<path class="st1" d="M870.9,400.8c0,1.4,1.2,2.6,2.6,2.6s2.6-1.2,2.6-2.6c0-1.4-1.2-2.6-2.6-2.6S870.9,399.4,870.9,400.8z"/>
	<path class="st1" d="M878.9,403.8c0,1.4,1.2,2.6,2.6,2.6c1.4,0,2.6-1.2,2.6-2.6c0-1.4-1.2-2.6-2.6-2.6
		C880.1,401.2,878.9,402.4,878.9,403.8z"/>
	<path class="st1" d="M868.3,411.3c0,1.4,1.2,2.6,2.6,2.6c1.4,0,2.6-1.2,2.6-2.6s-1.2-2.6-2.6-2.6
		C869.4,408.8,868.3,409.9,868.3,411.3z"/>
	<path class="st1" d="M709.4,117.4c0,1.4,1.2,2.6,2.6,2.6c1.4,0,2.6-1.2,2.6-2.6c0-1.4-1.2-2.6-2.6-2.6
		C710.5,114.8,709.4,115.9,709.4,117.4z"/>
	<path class="st1" d="M723.4,120.8c0,1.4,1.2,2.6,2.6,2.6c1.4,0,2.6-1.2,2.6-2.6c0-1.4-1.2-2.6-2.6-2.6
		C724.6,118.2,723.4,119.4,723.4,120.8z"/>
	<path class="st1" d="M565,230.1c0,1.4,1.2,2.6,2.6,2.6c1.4,0,2.6-1.2,2.6-2.6c0-1.4-1.2-2.6-2.6-2.6
		C566.1,227.6,565,228.7,565,230.1z"/>
	<path class="st1" d="M550.5,241.6c0,1.4,1.2,2.6,2.6,2.6c1.4,0,2.6-1.2,2.6-2.6c0-1.4-1.2-2.6-2.6-2.6
		C551.7,239,550.5,240.1,550.5,241.6z"/>
	<path class="st1" d="M716.8,487.6c0,1.4,1.2,2.6,2.6,2.6c1.4,0,2.6-1.2,2.6-2.6c0-1.4-1.2-2.6-2.6-2.6
		C717.9,485,716.8,486.1,716.8,487.6z"/>
	<path class="st1" d="M727.3,499.3c0,1.4,1.2,2.6,2.6,2.6c1.4,0,2.6-1.2,2.6-2.6c0-1.4-1.2-2.6-2.6-2.6
		C728.5,496.8,727.3,497.9,727.3,499.3z"/>
	<path class="st1" d="M713.3,503.8c0,1.4,1.2,2.6,2.6,2.6c1.4,0,2.6-1.2,2.6-2.6s-1.2-2.6-2.6-2.6
		C714.5,501.2,713.3,502.3,713.3,503.8z"/>
	<path class="st1" d="M793,416.3c0,1.4,1.2,2.6,2.6,2.6c1.4,0,2.6-1.2,2.6-2.6c0-1.4-1.2-2.6-2.6-2.6
		C794.2,413.7,793,414.9,793,416.3z"/>
	<path class="st1" d="M804.5,413.9c0,1.4,1.2,2.6,2.6,2.6c1.4,0,2.6-1.2,2.6-2.6c0-1.4-1.2-2.6-2.6-2.6
		C805.6,411.3,804.5,412.5,804.5,413.9z"/>
	<path class="st1" d="M800,419.1c0,1.4,1.2,2.6,2.6,2.6c1.4,0,2.6-1.2,2.6-2.6c0-1.4-1.2-2.6-2.6-2.6
		C801.1,416.5,800,417.7,800,419.1z"/>
	<path class="st1" d="M815.4,421.7c0,1.4,1.2,2.6,2.6,2.6s2.6-1.2,2.6-2.6c0-1.4-1.2-2.6-2.6-2.6S815.4,420.2,815.4,421.7z"/>
	<path class="st1" d="M820.3,414.6c0,1.4,1.2,2.6,2.6,2.6c1.4,0,2.6-1.2,2.6-2.6c0-1.4-1.2-2.6-2.6-2.6
		C821.5,412.1,820.3,413.2,820.3,414.6z"/>
	<path class="st1" d="M785.7,425.8c0,1.4,1.2,2.6,2.6,2.6s2.6-1.2,2.6-2.6c0-1.4-1.2-2.6-2.6-2.6S785.7,424.4,785.7,425.8z"/>
	<path class="st1" d="M801.9,434.1c0,1.4,1.2,2.6,2.6,2.6c1.4,0,2.6-1.2,2.6-2.6c0-1.4-1.2-2.6-2.6-2.6
		C803,431.5,801.9,432.6,801.9,434.1z"/>
	<path class="st1" d="M790.5,433.7c0,1.4,1.2,2.6,2.6,2.6c1.4,0,2.6-1.2,2.6-2.6c0-1.4-1.2-2.6-2.6-2.6
		C791.6,431.1,790.5,432.2,790.5,433.7z"/>
	<path class="st1" d="M819.9,431c0,1.4,1.2,2.6,2.6,2.6s2.6-1.2,2.6-2.6c0-1.4-1.2-2.6-2.6-2.6S819.9,429.6,819.9,431z"/>
	<path class="st1" d="M830.3,432.2c0,1.4,1.2,2.6,2.6,2.6c1.4,0,2.6-1.2,2.6-2.6c0-1.4-1.2-2.6-2.6-2.6
		C831.5,429.6,830.3,430.8,830.3,432.2z"/>
	<path class="st1" d="M872.9,128.6c0,1.4,1.2,2.6,2.6,2.6c1.4,0,2.6-1.2,2.6-2.6s-1.2-2.6-2.6-2.6C874,126,872.9,127.1,872.9,128.6z
		"/>
	<path class="st1" d="M483.3,216c0,1.4,1.2,2.6,2.6,2.6c1.4,0,2.6-1.2,2.6-2.6c0-1.4-1.2-2.6-2.6-2.6
		C484.5,213.4,483.3,214.5,483.3,216z"/>
	<path class="st1" d="M494.5,216c0,1.4,1.2,2.6,2.6,2.6c1.4,0,2.6-1.2,2.6-2.6c0-1.4-1.2-2.6-2.6-2.6
		C495.7,213.4,494.5,214.5,494.5,216z"/>
	<path class="st1" d="M492.6,223.8c0,1.4,1.2,2.6,2.6,2.6c1.4,0,2.6-1.2,2.6-2.6c0-1.4-1.2-2.6-2.6-2.6
		C493.7,221.3,492.6,222.4,492.6,223.8z"/>
	<path class="st1" d="M479.2,226.4c0,1.4,1.2,2.6,2.6,2.6c1.4,0,2.6-1.2,2.6-2.6c0-1.4-1.2-2.6-2.6-2.6
		C480.3,223.8,479.2,225,479.2,226.4z"/>
	<path class="st1" d="M461.3,224.3c0,1.4,1.2,2.6,2.6,2.6c1.4,0,2.6-1.2,2.6-2.6s-1.2-2.6-2.6-2.6
		C462.5,221.7,461.3,222.8,461.3,224.3z"/>
	<path class="st1" d="M466.5,215.4c0,1.4,1.2,2.6,2.6,2.6c1.4,0,2.6-1.2,2.6-2.6c0-1.4-1.2-2.6-2.6-2.6
		C467.6,212.8,466.5,214,466.5,215.4z"/>
	<path class="st1" d="M475.8,216c0,1.4,1.2,2.6,2.6,2.6c1.4,0,2.6-1.2,2.6-2.6c0-1.4-1.2-2.6-2.6-2.6
		C476.9,213.4,475.8,214.5,475.8,216z"/>
	<path class="st1" d="M496.4,223.8c0,1.4,1.2,2.6,2.6,2.6c1.4,0,2.6-1.2,2.6-2.6c0-1.4-1.2-2.6-2.6-2.6
		C497.6,221.3,496.4,222.4,496.4,223.8z"/>
	<path class="st1" d="M503.3,219.8c0,1.4,1.2,2.6,2.6,2.6c1.4,0,2.6-1.2,2.6-2.6s-1.2-2.6-2.6-2.6
		C504.5,217.2,503.3,218.4,503.3,219.8z"/>
	<path class="st1" d="M469.8,224.3c0,1.4,1.2,2.6,2.6,2.6c1.4,0,2.6-1.2,2.6-2.6s-1.2-2.6-2.6-2.6
		C470.9,221.7,469.8,222.8,469.8,224.3z"/>
	<path class="st1" d="M488.9,212.2c0,1.4,1.2,2.6,2.6,2.6s2.6-1.2,2.6-2.6c0-1.4-1.2-2.6-2.6-2.6S488.9,210.8,488.9,212.2z"/>
	<path class="st1" d="M950.4,393.8c0,1.4,1.2,2.6,2.6,2.6c1.4,0,2.6-1.2,2.6-2.6c0-1.4-1.2-2.6-2.6-2.6
		C951.5,391.2,950.4,392.4,950.4,393.8z"/>
	<path class="st1" d="M697.6,191.5c0,1.4,1.2,2.6,2.6,2.6c1.4,0,2.6-1.2,2.6-2.6s-1.2-2.6-2.6-2.6
		C698.7,188.9,697.6,190.1,697.6,191.5z"/>
	<path class="st1" d="M712,201.9c0,1.4,1.2,2.6,2.6,2.6c1.4,0,2.6-1.2,2.6-2.6c0-1.4-1.2-2.6-2.6-2.6
		C713.1,199.3,712,200.5,712,201.9z"/>
	<path class="st1" d="M695,201.2c0,1.4,1.2,2.6,2.6,2.6c1.4,0,2.6-1.2,2.6-2.6c0-1.4-1.2-2.6-2.6-2.6
		C696.2,198.7,695,199.8,695,201.2z"/>
	<path class="st1" d="M564.9,292.7c0,1.4,1.2,2.6,2.6,2.6c1.4,0,2.6-1.2,2.6-2.6s-1.2-2.6-2.6-2.6
		C566,290.1,564.9,291.2,564.9,292.7z"/>
	<path class="st1" d="M576.8,297.8c0,1.4,1.2,2.6,2.6,2.6c1.4,0,2.6-1.2,2.6-2.6s-1.2-2.6-2.6-2.6
		C578,295.2,576.8,296.4,576.8,297.8z"/>
	<path class="st1" d="M582,292.7c0,1.4,1.2,2.6,2.6,2.6c1.4,0,2.6-1.2,2.6-2.6s-1.2-2.6-2.6-2.6C583.1,290.1,582,291.2,582,292.7z"
		/>
	<path class="st1" d="M587.8,300.1c0,1.4,1.2,2.6,2.6,2.6c1.4,0,2.6-1.2,2.6-2.6c0-1.4-1.2-2.6-2.6-2.6
		C589,297.5,587.8,298.7,587.8,300.1z"/>
	<path class="st1" d="M560,301.7c0,1.4,1.2,2.6,2.6,2.6c1.4,0,2.6-1.2,2.6-2.6c0-1.4-1.2-2.6-2.6-2.6
		C561.2,299.2,560,300.3,560,301.7z"/>
	<path class="st1" d="M559.7,293.4c0,1.4,1.2,2.6,2.6,2.6c1.4,0,2.6-1.2,2.6-2.6s-1.2-2.6-2.6-2.6
		C560.9,290.8,559.7,292,559.7,293.4z"/>
	<path class="st1" d="M963.9,316.8c0,1.4,1.2,2.6,2.6,2.6c1.4,0,2.6-1.2,2.6-2.6c0-1.4-1.2-2.6-2.6-2.6
		C965.1,314.2,963.9,315.3,963.9,316.8z"/>
	<path class="st1" d="M978.2,325.1c0,1.4,1.2,2.6,2.6,2.6c1.4,0,2.6-1.2,2.6-2.6c0-1.4-1.2-2.6-2.6-2.6
		C979.3,322.5,978.2,323.7,978.2,325.1z"/>
	<path class="st1" d="M551.3,146.6c0,1.4,1.2,2.6,2.6,2.6c1.4,0,2.6-1.2,2.6-2.6s-1.2-2.6-2.6-2.6
		C552.4,144,551.3,145.1,551.3,146.6z"/>
	<path class="st1" d="M543.6,155.2c0,1.4,1.2,2.6,2.6,2.6c1.4,0,2.6-1.2,2.6-2.6c0-1.4-1.2-2.6-2.6-2.6
		C544.8,152.6,543.6,153.8,543.6,155.2z"/>
	<path class="st1" d="M557,156.1c0,1.4,1.2,2.6,2.6,2.6c1.4,0,2.6-1.2,2.6-2.6c0-1.4-1.2-2.6-2.6-2.6
		C558.2,153.6,557,154.7,557,156.1z"/>
	<path class="st1" d="M560.7,148.1c0,1.4,1.2,2.6,2.6,2.6s2.6-1.2,2.6-2.6c0-1.4-1.2-2.6-2.6-2.6S560.7,146.7,560.7,148.1z"/>
	<path class="st1" d="M318.9,300.6c0,1.4,1.2,2.6,2.6,2.6c1.4,0,2.6-1.2,2.6-2.6c0-1.4-1.2-2.6-2.6-2.6
		C320,298,318.9,299.1,318.9,300.6z"/>
	<path class="st1" d="M324,315.7c0,1.4,1.2,2.6,2.6,2.6c1.4,0,2.6-1.2,2.6-2.6c0-1.4-1.2-2.6-2.6-2.6
		C325.2,313.1,324,314.3,324,315.7z"/>
	<path class="st1" d="M338.3,300.1c0,1.4,1.2,2.6,2.6,2.6c1.4,0,2.6-1.2,2.6-2.6c0-1.4-1.2-2.6-2.6-2.6
		C339.5,297.5,338.3,298.7,338.3,300.1z"/>
	<path class="st1" d="M339.4,316.2c0,1.4,1.2,2.6,2.6,2.6c1.4,0,2.6-1.2,2.6-2.6c0-1.4-1.2-2.6-2.6-2.6
		C340.6,313.6,339.4,314.8,339.4,316.2z"/>
	<path class="st1" d="M823.3,375.2c0,1.4,1.2,2.6,2.6,2.6c1.4,0,2.6-1.2,2.6-2.6c0-1.4-1.2-2.6-2.6-2.6
		C824.5,372.6,823.3,373.8,823.3,375.2z"/>
	<path class="st1" d="M801.3,146.2c0,1.4,1.2,2.6,2.6,2.6c1.4,0,2.6-1.2,2.6-2.6c0-1.4-1.2-2.6-2.6-2.6
		C802.5,143.6,801.3,144.7,801.3,146.2z"/>
	<path class="st1" d="M814.1,161.1c0,1.4,1.2,2.6,2.6,2.6s2.6-1.2,2.6-2.6c0-1.4-1.2-2.6-2.6-2.6S814.1,159.7,814.1,161.1z"/>
	<path class="st1" d="M729.3,211.9c0,1.4,1.2,2.6,2.6,2.6c1.4,0,2.6-1.2,2.6-2.6c0-1.4-1.2-2.6-2.6-2.6
		C730.4,209.3,729.3,210.4,729.3,211.9z"/>
	<path class="st1" d="M740.4,209.3c0,1.4,1.2,2.6,2.6,2.6c1.4,0,2.6-1.2,2.6-2.6c0-1.4-1.2-2.6-2.6-2.6
		C741.6,206.7,740.4,207.8,740.4,209.3z"/>
	<path class="st1" d="M746.3,220.3c0,1.4,1.2,2.6,2.6,2.6c1.4,0,2.6-1.2,2.6-2.6c0-1.4-1.2-2.6-2.6-2.6
		C747.5,217.7,746.3,218.8,746.3,220.3z"/>
	<path class="st1" d="M754.9,226.3c0,1.4,1.2,2.6,2.6,2.6s2.6-1.2,2.6-2.6c0-1.4-1.2-2.6-2.6-2.6S754.9,224.9,754.9,226.3z"/>
	<path class="st1" d="M752.3,210c0,1.4,1.2,2.6,2.6,2.6c1.4,0,2.6-1.2,2.6-2.6c0-1.4-1.2-2.6-2.6-2.6
		C753.5,207.5,752.3,208.6,752.3,210z"/>
	<path class="st1" d="M736.6,220.3c0,1.4,1.2,2.6,2.6,2.6c1.4,0,2.6-1.2,2.6-2.6c0-1.4-1.2-2.6-2.6-2.6
		C737.8,217.7,736.6,218.8,736.6,220.3z"/>
	<path class="st1" d="M727.3,223.7c0,1.4,1.2,2.6,2.6,2.6c1.4,0,2.6-1.2,2.6-2.6c0-1.4-1.2-2.6-2.6-2.6
		C728.5,221.2,727.3,222.3,727.3,223.7z"/>
	<path class="st1" d="M738.8,231c0,1.4,1.2,2.6,2.6,2.6c1.4,0,2.6-1.2,2.6-2.6c0-1.4-1.2-2.6-2.6-2.6
		C740,228.4,738.8,229.6,738.8,231z"/>
	<path class="st1" d="M745.6,231c0,1.4,1.2,2.6,2.6,2.6c1.4,0,2.6-1.2,2.6-2.6c0-1.4-1.2-2.6-2.6-2.6
		C746.8,228.4,745.6,229.6,745.6,231z"/>
	<path class="st1" d="M759.3,226.8c0,1.4,1.2,2.6,2.6,2.6c1.4,0,2.6-1.2,2.6-2.6c0-1.4-1.2-2.6-2.6-2.6
		C760.5,224.3,759.3,225.4,759.3,226.8z"/>
	<path class="st1" d="M767.1,224.3c0,1.4,1.2,2.6,2.6,2.6c1.4,0,2.6-1.2,2.6-2.6s-1.2-2.6-2.6-2.6
		C768.2,221.7,767.1,222.8,767.1,224.3z"/>
	<path class="st1" d="M767.5,213.5c0,1.4,1.2,2.6,2.6,2.6c1.4,0,2.6-1.2,2.6-2.6c0-1.4-1.2-2.6-2.6-2.6
		C768.7,210.9,767.5,212.1,767.5,213.5z"/>
	<path class="st1" d="M761.9,210.9c0,1.4,1.2,2.6,2.6,2.6c1.4,0,2.6-1.2,2.6-2.6c0-1.4-1.2-2.6-2.6-2.6
		C763,208.4,761.9,209.5,761.9,210.9z"/>
	<path class="st1" d="M722.7,217c0,1.4,1.2,2.6,2.6,2.6c1.4,0,2.6-1.2,2.6-2.6c0-1.4-1.2-2.6-2.6-2.6
		C723.9,214.4,722.7,215.6,722.7,217z"/>
	<path class="st1" d="M743.3,212.6c0,1.4,1.2,2.6,2.6,2.6c1.4,0,2.6-1.2,2.6-2.6c0-1.4-1.2-2.6-2.6-2.6
		C744.5,210,743.3,211.2,743.3,212.6z"/>
	<path class="st1" d="M396.2,155.9c0,1.4,1.2,2.6,2.6,2.6c1.4,0,2.6-1.2,2.6-2.6c0-1.4-1.2-2.6-2.6-2.6
		C397.3,153.3,396.2,154.4,396.2,155.9z"/>
	<path class="st1" d="M397.4,147.4c0,1.4,1.2,2.6,2.6,2.6c1.4,0,2.6-1.2,2.6-2.6c0-1.4-1.2-2.6-2.6-2.6
		C398.5,144.8,397.4,146,397.4,147.4z"/>
	<path class="st1" d="M401.8,152.4c0,1.4,1.2,2.6,2.6,2.6s2.6-1.2,2.6-2.6s-1.2-2.6-2.6-2.6S401.8,150.9,401.8,152.4z"/>
	<path class="st1" d="M413,155.2c0,1.4,1.2,2.6,2.6,2.6s2.6-1.2,2.6-2.6c0-1.4-1.2-2.6-2.6-2.6S413,153.8,413,155.2z"/>
	<path class="st1" d="M406.7,159.8c0,1.4,1.2,2.6,2.6,2.6c1.4,0,2.6-1.2,2.6-2.6s-1.2-2.6-2.6-2.6
		C407.8,157.2,406.7,158.4,406.7,159.8z"/>
	<path class="st1" d="M394,164.5c0,1.4,1.2,2.6,2.6,2.6c1.4,0,2.6-1.2,2.6-2.6c0-1.4-1.2-2.6-2.6-2.6
		C395.2,161.9,394,163.1,394,164.5z"/>
	<path class="st1" d="M401.8,170.1c0,1.4,1.2,2.6,2.6,2.6s2.6-1.2,2.6-2.6c0-1.4-1.2-2.6-2.6-2.6S401.8,168.7,401.8,170.1z"/>
	<path class="st1" d="M408.8,171.6c0,1.4,1.2,2.6,2.6,2.6c1.4,0,2.6-1.2,2.6-2.6c0-1.4-1.2-2.6-2.6-2.6
		C409.9,169,408.8,170.1,408.8,171.6z"/>
	<path class="st1" d="M413,165.9c0,1.4,1.2,2.6,2.6,2.6s2.6-1.2,2.6-2.6s-1.2-2.6-2.6-2.6S413,164.5,413,165.9z"/>
	<path class="st1" d="M418.2,173.6c0,1.4,1.2,2.6,2.6,2.6c1.4,0,2.6-1.2,2.6-2.6c0-1.4-1.2-2.6-2.6-2.6
		C419.4,171,418.2,172.1,418.2,173.6z"/>
	<path class="st1" d="M406.2,178.8c0,1.4,1.2,2.6,2.6,2.6c1.4,0,2.6-1.2,2.6-2.6c0-1.4-1.2-2.6-2.6-2.6
		C407.4,176.2,406.2,177.4,406.2,178.8z"/>
	<path class="st1" d="M391.5,179.4c0,1.4,1.2,2.6,2.6,2.6c1.4,0,2.6-1.2,2.6-2.6s-1.2-2.6-2.6-2.6
		C392.6,176.8,391.5,178,391.5,179.4z"/>
	<path class="st1" d="M415.7,181.4c0,1.4,1.2,2.6,2.6,2.6c1.4,0,2.6-1.2,2.6-2.6c0-1.4-1.2-2.6-2.6-2.6
		C416.8,178.8,415.7,179.9,415.7,181.4z"/>
	<path class="st1" d="M424.3,171c0,1.4,1.2,2.6,2.6,2.6c1.4,0,2.6-1.2,2.6-2.6s-1.2-2.6-2.6-2.6C425.4,168.4,424.3,169.6,424.3,171z
		"/>
	<path class="st1" d="M426.1,160.8c0,1.4,1.2,2.6,2.6,2.6c1.4,0,2.6-1.2,2.6-2.6c0-1.4-1.2-2.6-2.6-2.6
		C427.2,158.2,426.1,159.3,426.1,160.8z"/>
	<path class="st1" d="M422.3,153.3c0,1.4,1.2,2.6,2.6,2.6c1.4,0,2.6-1.2,2.6-2.6c0-1.4-1.2-2.6-2.6-2.6
		C423.4,150.7,422.3,151.9,422.3,153.3z"/>
	<path class="st1" d="M410.4,150.7c0,1.4,1.2,2.6,2.6,2.6c1.4,0,2.6-1.2,2.6-2.6c0-1.4-1.2-2.6-2.6-2.6
		C411.6,148.1,410.4,149.3,410.4,150.7z"/>
	<path class="st1" d="M431.9,168.4c0,1.4,1.2,2.6,2.6,2.6c1.4,0,2.6-1.2,2.6-2.6c0-1.4-1.2-2.6-2.6-2.6
		C433.1,165.8,431.9,167,431.9,168.4z"/>
	<path class="st1" d="M423.5,177.9c0,1.4,1.2,2.6,2.6,2.6c1.4,0,2.6-1.2,2.6-2.6c0-1.4-1.2-2.6-2.6-2.6
		C424.7,175.3,423.5,176.5,423.5,177.9z"/>
	<path class="st1" d="M426.1,181.2c0,1.4,1.2,2.6,2.6,2.6c1.4,0,2.6-1.2,2.6-2.6c0-1.4-1.2-2.6-2.6-2.6
		C427.2,178.6,426.1,179.8,426.1,181.2z"/>
	<path class="st1" d="M423.4,162.4c0,1.4,1.2,2.6,2.6,2.6c1.4,0,2.6-1.2,2.6-2.6c0-1.4-1.2-2.6-2.6-2.6
		C424.6,159.8,423.4,161,423.4,162.4z"/>
	<path class="st1" d="M431.3,155.9c0,1.4,1.2,2.6,2.6,2.6c1.4,0,2.6-1.2,2.6-2.6c0-1.4-1.2-2.6-2.6-2.6
		C432.4,153.3,431.3,154.4,431.3,155.9z"/>
	<path class="st1" d="M417.6,147.4c0,1.4,1.2,2.6,2.6,2.6c1.4,0,2.6-1.2,2.6-2.6c0-1.4-1.2-2.6-2.6-2.6
		C418.7,144.8,417.6,146,417.6,147.4z"/>
	<path class="st1" d="M431.9,124.3c0,1.4,1.2,2.6,2.6,2.6c1.4,0,2.6-1.2,2.6-2.6s-1.2-2.6-2.6-2.6
		C433.1,121.7,431.9,122.9,431.9,124.3z"/>
	<path class="st1" d="M440.5,119.1c0,1.4,1.2,2.6,2.6,2.6c1.4,0,2.6-1.2,2.6-2.6c0-1.4-1.2-2.6-2.6-2.6
		C441.7,116.5,440.5,117.7,440.5,119.1z"/>
	<path class="st1" d="M446,128.1c0,1.4,1.2,2.6,2.6,2.6c1.4,0,2.6-1.2,2.6-2.6c0-1.4-1.2-2.6-2.6-2.6
		C447.2,125.6,446,126.7,446,128.1z"/>
	<path class="st1" d="M422.7,128.9c0,1.4,1.2,2.6,2.6,2.6c1.4,0,2.6-1.2,2.6-2.6c0-1.4-1.2-2.6-2.6-2.6
		C423.9,126.3,422.7,127.5,422.7,128.9z"/>
	<path class="st1" d="M420.9,118.7c0,1.4,1.2,2.6,2.6,2.6c1.4,0,2.6-1.2,2.6-2.6c0-1.4-1.2-2.6-2.6-2.6
		C422.1,116.1,420.9,117.3,420.9,118.7z"/>
	<path class="st1" d="M391,165.9c0,1.4,1.2,2.6,2.6,2.6c1.4,0,2.6-1.2,2.6-2.6s-1.2-2.6-2.6-2.6C392.1,163.4,391,164.5,391,165.9z"
		/>
	<path class="st1" d="M396.2,174.8c0,1.4,1.2,2.6,2.6,2.6c1.4,0,2.6-1.2,2.6-2.6c0-1.4-1.2-2.6-2.6-2.6
		C397.3,172.2,396.2,173.4,396.2,174.8z"/>
	<path class="st1" d="M399.9,183.9c0,1.4,1.2,2.6,2.6,2.6c1.4,0,2.6-1.2,2.6-2.6c0-1.4-1.2-2.6-2.6-2.6
		C401.1,181.4,399.9,182.5,399.9,183.9z"/>
	<path class="st1" d="M420.1,185.8c0,1.4,1.2,2.6,2.6,2.6c1.4,0,2.6-1.2,2.6-2.6c0-1.4-1.2-2.6-2.6-2.6
		C421.3,183.2,420.1,184.3,420.1,185.8z"/>
	<path class="st1" d="M430.7,174.8c0,1.4,1.2,2.6,2.6,2.6c1.4,0,2.6-1.2,2.6-2.6c0-1.4-1.2-2.6-2.6-2.6
		C431.9,172.2,430.7,173.4,430.7,174.8z"/>
	<path class="st1" d="M434.5,162.4c0,1.4,1.2,2.6,2.6,2.6s2.6-1.2,2.6-2.6c0-1.4-1.2-2.6-2.6-2.6S434.5,161,434.5,162.4z"/>
	<path class="st1" d="M415.6,157.8c0,1.4,1.2,2.6,2.6,2.6c1.4,0,2.6-1.2,2.6-2.6c0-1.4-1.2-2.6-2.6-2.6
		C416.8,155.2,415.6,156.4,415.6,157.8z"/>
	<path class="st1" d="M426.1,151.3c0,1.4,1.2,2.6,2.6,2.6c1.4,0,2.6-1.2,2.6-2.6c0-1.4-1.2-2.6-2.6-2.6
		C427.2,148.8,426.1,149.9,426.1,151.3z"/>
	<path class="st1" d="M406.7,144.4c0,1.4,1.2,2.6,2.6,2.6c1.4,0,2.6-1.2,2.6-2.6c0-1.4-1.2-2.6-2.6-2.6
		C407.8,141.8,406.7,142.9,406.7,144.4z"/>
	<path class="st1" d="M393.6,145.8c0,1.4,1.2,2.6,2.6,2.6c1.4,0,2.6-1.2,2.6-2.6c0-1.4-1.2-2.6-2.6-2.6
		C394.7,143.2,393.6,144.4,393.6,145.8z"/>
	<path class="st1" d="M407.4,182c0,1.4,1.2,2.6,2.6,2.6c1.4,0,2.6-1.2,2.6-2.6c0-1.4-1.2-2.6-2.6-2.6
		C408.5,179.4,407.4,180.5,407.4,182z"/>
	<path class="st1" d="M403.5,161.9c0,1.4,1.2,2.6,2.6,2.6c1.4,0,2.6-1.2,2.6-2.6c0-1.4-1.2-2.6-2.6-2.6
		C404.7,159.3,403.5,160.5,403.5,161.9z"/>
	<path class="st1" d="M405.3,169.6c0,1.4,1.2,2.6,2.6,2.6c1.4,0,2.6-1.2,2.6-2.6c0-1.4-1.2-2.6-2.6-2.6
		C406.4,167.1,405.3,168.2,405.3,169.6z"/>
	<path class="st1" d="M893.3,196c0,1.4,1.2,2.6,2.6,2.6c1.4,0,2.6-1.2,2.6-2.6c0-1.4-1.2-2.6-2.6-2.6
		C894.4,193.4,893.3,194.6,893.3,196z"/>
	<path class="st1" d="M909.5,199.9c0,1.4,1.2,2.6,2.6,2.6c1.4,0,2.6-1.2,2.6-2.6c0-1.4-1.2-2.6-2.6-2.6
		C910.7,197.3,909.5,198.5,909.5,199.9z"/>
	<path class="st1" d="M897.4,205.3c0,1.4,1.2,2.6,2.6,2.6c1.4,0,2.6-1.2,2.6-2.6c0-1.4-1.2-2.6-2.6-2.6
		C898.6,202.7,897.4,203.9,897.4,205.3z"/>
	<path class="st1" d="M325.6,466.1c0,1.4,1.2,2.6,2.6,2.6c1.4,0,2.6-1.2,2.6-2.6c0-1.4-1.2-2.6-2.6-2.6
		C326.7,463.5,325.6,464.6,325.6,466.1z"/>
	<path class="st1" d="M304.8,455.5c0,1.4,1.2,2.6,2.6,2.6c1.4,0,2.6-1.2,2.6-2.6c0-1.4-1.2-2.6-2.6-2.6
		C306,452.9,304.8,454.1,304.8,455.5z"/>
	<path class="st1" d="M333.9,452.9c0,1.4,1.2,2.6,2.6,2.6c1.4,0,2.6-1.2,2.6-2.6c0-1.4-1.2-2.6-2.6-2.6
		C335,450.3,333.9,451.5,333.9,452.9z"/>
	<path class="st1" d="M341.7,468.6c0,1.4,1.2,2.6,2.6,2.6c1.4,0,2.6-1.2,2.6-2.6c0-1.4-1.2-2.6-2.6-2.6
		C342.9,466.1,341.7,467.2,341.7,468.6z"/>
	<path class="st1" d="M484.8,53.1c0,1.4,1.2,2.6,2.6,2.6c1.4,0,2.6-1.2,2.6-2.6c0-1.4-1.2-2.6-2.6-2.6
		C485.9,50.5,484.8,51.6,484.8,53.1z"/>
	<path class="st1" d="M502.2,53.1c0,1.4,1.2,2.6,2.6,2.6c1.4,0,2.6-1.2,2.6-2.6c0-1.4-1.2-2.6-2.6-2.6
		C503.3,50.5,502.2,51.6,502.2,53.1z"/>
	<path class="st1" d="M499.6,63.7c0,1.4,1.2,2.6,2.6,2.6c1.4,0,2.6-1.2,2.6-2.6c0-1.4-1.2-2.6-2.6-2.6
		C500.7,61.1,499.6,62.3,499.6,63.7z"/>
	<path class="st1" d="M487.1,64.9c0,1.4,1.2,2.6,2.6,2.6c1.4,0,2.6-1.2,2.6-2.6c0-1.4-1.2-2.6-2.6-2.6
		C488.2,62.3,487.1,63.5,487.1,64.9z"/>
	<path class="st1" d="M512,45.8c0,1.4,1.2,2.6,2.6,2.6c1.4,0,2.6-1.2,2.6-2.6c0-1.4-1.2-2.6-2.6-2.6C513.2,43.2,512,44.3,512,45.8z"
		/>
	<path class="st1" d="M508.1,71.5c0,1.4,1.2,2.6,2.6,2.6c1.4,0,2.6-1.2,2.6-2.6c0-1.4-1.2-2.6-2.6-2.6
		C509.3,69,508.1,70.1,508.1,71.5z"/>
	<path class="st1" d="M351.2,371.7c0,1.4,1.2,2.6,2.6,2.6c1.4,0,2.6-1.2,2.6-2.6c0-1.4-1.2-2.6-2.6-2.6
		C352.3,369.1,351.2,370.2,351.2,371.7z"/>
	<path class="st1" d="M362.4,392.1c0,1.4,1.2,2.6,2.6,2.6c1.4,0,2.6-1.2,2.6-2.6c0-1.4-1.2-2.6-2.6-2.6
		C363.6,389.5,362.4,390.7,362.4,392.1z"/>
	<path class="st1" d="M345.8,395.4c0,1.4,1.2,2.6,2.6,2.6c1.4,0,2.6-1.2,2.6-2.6c0-1.4-1.2-2.6-2.6-2.6
		C347,392.9,345.8,394,345.8,395.4z"/>
	<path class="st1" d="M340.7,385.1c0,1.4,1.2,2.6,2.6,2.6c1.4,0,2.6-1.2,2.6-2.6c0-1.4-1.2-2.6-2.6-2.6
		C341.8,382.5,340.7,383.6,340.7,385.1z"/>
	<path class="st1" d="M367.6,378.9c0,1.4,1.2,2.6,2.6,2.6c1.4,0,2.6-1.2,2.6-2.6c0-1.4-1.2-2.6-2.6-2.6
		C368.7,376.3,367.6,377.4,367.6,378.9z"/>
	<path class="st1" d="M374.8,394.7c0,1.4,1.2,2.6,2.6,2.6c1.4,0,2.6-1.2,2.6-2.6c0-1.4-1.2-2.6-2.6-2.6
		C376,392.1,374.8,393.2,374.8,394.7z"/>
	<path class="st1" d="M772.6,127.5c0,1.4,1.2,2.6,2.6,2.6c1.4,0,2.6-1.2,2.6-2.6c0-1.4-1.2-2.6-2.6-2.6
		C773.8,124.9,772.6,126.1,772.6,127.5z"/>
	<path class="st1" d="M787,121.5c0,1.4,1.2,2.6,2.6,2.6c1.4,0,2.6-1.2,2.6-2.6c0-1.4-1.2-2.6-2.6-2.6C788.2,118.9,787,120,787,121.5
		z"/>
	<path class="st1" d="M666.5,430.1c0,1.4,1.2,2.6,2.6,2.6c1.4,0,2.6-1.2,2.6-2.6c0-1.4-1.2-2.6-2.6-2.6
		C667.7,427.5,666.5,428.6,666.5,430.1z"/>
	<path class="st1" d="M660.2,442.9c0,1.4,1.2,2.6,2.6,2.6c1.4,0,2.6-1.2,2.6-2.6c0-1.4-1.2-2.6-2.6-2.6
		C661.3,440.4,660.2,441.5,660.2,442.9z"/>
	<path class="st1" d="M671.3,442.4c0,1.4,1.2,2.6,2.6,2.6c1.4,0,2.6-1.2,2.6-2.6c0-1.4-1.2-2.6-2.6-2.6
		C672.4,439.8,671.3,441,671.3,442.4z"/>
	<path class="st1" d="M771.1,388c0,1.4,1.2,2.6,2.6,2.6c1.4,0,2.6-1.2,2.6-2.6c0-1.4-1.2-2.6-2.6-2.6
		C772.3,385.4,771.1,386.6,771.1,388z"/>
	<path class="st1" d="M773.7,395.6c0,1.4,1.2,2.6,2.6,2.6c1.4,0,2.6-1.2,2.6-2.6c0-1.4-1.2-2.6-2.6-2.6
		C774.9,393,773.7,394.2,773.7,395.6z"/>
	<path class="st1" d="M787.9,384.7c0,1.4,1.2,2.6,2.6,2.6c1.4,0,2.6-1.2,2.6-2.6c0-1.4-1.2-2.6-2.6-2.6
		C789,382.2,787.9,383.3,787.9,384.7z"/>
	<path class="st1" d="M760.6,396.4c0,1.4,1.2,2.6,2.6,2.6c1.4,0,2.6-1.2,2.6-2.6c0-1.4-1.2-2.6-2.6-2.6
		C761.7,393.8,760.6,395,760.6,396.4z"/>
	<path class="st1" d="M777.9,456.1c0,1.4,1.2,2.6,2.6,2.6s2.6-1.2,2.6-2.6c0-1.4-1.2-2.6-2.6-2.6S777.9,454.7,777.9,456.1z"/>
	<path class="st1" d="M55.6,367.3c0,1.4,1.2,2.6,2.6,2.6c1.4,0,2.6-1.2,2.6-2.6c0-1.4-1.2-2.6-2.6-2.6
		C56.8,364.7,55.6,365.9,55.6,367.3z"/>
	<path class="st1" d="M54.4,387.4c0,1.4,1.2,2.6,2.6,2.6c1.4,0,2.6-1.2,2.6-2.6c0-1.4-1.2-2.6-2.6-2.6
		C55.5,384.8,54.4,386,54.4,387.4z"/>
	<path class="st1" d="M73,381.4c0,1.4,1.2,2.6,2.6,2.6c1.4,0,2.6-1.2,2.6-2.6s-1.2-2.6-2.6-2.6C74.2,378.8,73,379.9,73,381.4z"/>
	<path class="st1" d="M90.6,383.9c0,1.4,1.2,2.6,2.6,2.6c1.4,0,2.6-1.2,2.6-2.6c0-1.4-1.2-2.6-2.6-2.6
		C91.7,381.4,90.6,382.5,90.6,383.9z"/>
	<path class="st1" d="M805.9,197.3c0,1.4,1.2,2.6,2.6,2.6c1.4,0,2.6-1.2,2.6-2.6c0-1.4-1.2-2.6-2.6-2.6
		C807.1,194.7,805.9,195.9,805.9,197.3z"/>
	<path class="st1" d="M653.9,305.9c0,1.4,1.2,2.6,2.6,2.6c1.4,0,2.6-1.2,2.6-2.6c0-1.4-1.2-2.6-2.6-2.6
		C655.1,303.3,653.9,304.5,653.9,305.9z"/>
	<path class="st1" d="M673.7,315.5c0,1.4,1.2,2.6,2.6,2.6c1.4,0,2.6-1.2,2.6-2.6c0-1.4-1.2-2.6-2.6-2.6
		C674.9,313,673.7,314.1,673.7,315.5z"/>
	<path class="st1" d="M532.2,177.4c0,1.4,1.2,2.6,2.6,2.6c1.4,0,2.6-1.2,2.6-2.6c0-1.4-1.2-2.6-2.6-2.6
		C533.4,174.8,532.2,176,532.2,177.4z"/>
	<path class="st1" d="M443,193.4c0,1.4,1.2,2.6,2.6,2.6c1.4,0,2.6-1.2,2.6-2.6c0-1.4-1.2-2.6-2.6-2.6C444.1,190.8,443,192,443,193.4
		z"/>
	<path class="st1" d="M452.4,201.7c0,1.4,1.2,2.6,2.6,2.6c1.4,0,2.6-1.2,2.6-2.6c0-1.4-1.2-2.6-2.6-2.6
		C453.5,199.1,452.4,200.3,452.4,201.7z"/>
	<path class="st1" d="M454.4,196.5c0,1.4,1.2,2.6,2.6,2.6c1.4,0,2.6-1.2,2.6-2.6c0-1.4-1.2-2.6-2.6-2.6
		C455.5,193.9,454.4,195.1,454.4,196.5z"/>
	<path class="st1" d="M433.8,197.9c0,1.4,1.2,2.6,2.6,2.6c1.4,0,2.6-1.2,2.6-2.6s-1.2-2.6-2.6-2.6
		C435,195.3,433.8,196.5,433.8,197.9z"/>
	<path class="st1" d="M437.1,204.6c0,1.4,1.2,2.6,2.6,2.6c1.4,0,2.6-1.2,2.6-2.6c0-1.4-1.2-2.6-2.6-2.6
		C438.2,202,437.1,203.2,437.1,204.6z"/>
	<path class="st1" d="M449.8,206.7c0,1.4,1.2,2.6,2.6,2.6c1.4,0,2.6-1.2,2.6-2.6c0-1.4-1.2-2.6-2.6-2.6
		C451,204.1,449.8,205.3,449.8,206.7z"/>
	<path class="st1" d="M455.6,205.3c0,1.4,1.2,2.6,2.6,2.6c1.4,0,2.6-1.2,2.6-2.6c0-1.4-1.2-2.6-2.6-2.6
		C456.7,202.7,455.6,203.9,455.6,205.3z"/>
	<path class="st1" d="M465.3,202c0,1.4,1.2,2.6,2.6,2.6c1.4,0,2.6-1.2,2.6-2.6s-1.2-2.6-2.6-2.6C466.5,199.4,465.3,200.6,465.3,202z
		"/>
	<path class="st1" d="M463.4,193.9c0,1.4,1.2,2.6,2.6,2.6c1.4,0,2.6-1.2,2.6-2.6c0-1.4-1.2-2.6-2.6-2.6
		C464.6,191.4,463.4,192.5,463.4,193.9z"/>
	<path class="st1" d="M456.9,189.7c0,1.4,1.2,2.6,2.6,2.6c1.4,0,2.6-1.2,2.6-2.6c0-1.4-1.2-2.6-2.6-2.6
		C458.1,187.1,456.9,188.2,456.9,189.7z"/>
	<path class="st1" d="M449.5,192.7c0,1.4,1.2,2.6,2.6,2.6c1.4,0,2.6-1.2,2.6-2.6c0-1.4-1.2-2.6-2.6-2.6
		C450.7,190.2,449.5,191.3,449.5,192.7z"/>
	<path class="st1" d="M445.6,202c0,1.4,1.2,2.6,2.6,2.6c1.4,0,2.6-1.2,2.6-2.6s-1.2-2.6-2.6-2.6C446.7,199.4,445.6,200.6,445.6,202z
		"/>
	<path class="st1" d="M928.6,162.2c0,1.4,1.2,2.6,2.6,2.6c1.4,0,2.6-1.2,2.6-2.6s-1.2-2.6-2.6-2.6
		C929.8,159.6,928.6,160.8,928.6,162.2z"/>
	<path class="st1" d="M937.1,162.7c0,1.4,1.2,2.6,2.6,2.6c1.4,0,2.6-1.2,2.6-2.6c0-1.4-1.2-2.6-2.6-2.6
		C938.3,160.1,937.1,161.3,937.1,162.7z"/>
	<path class="st1" d="M933.5,169c0,1.4,1.2,2.6,2.6,2.6c1.4,0,2.6-1.2,2.6-2.6s-1.2-2.6-2.6-2.6C934.7,166.4,933.5,167.6,933.5,169z
		"/>
	<path class="st1" d="M923.3,174.2c0,1.4,1.2,2.6,2.6,2.6c1.4,0,2.6-1.2,2.6-2.6s-1.2-2.6-2.6-2.6
		C924.5,171.6,923.3,172.7,923.3,174.2z"/>
	<path class="st1" d="M912.7,171.6c0,1.4,1.2,2.6,2.6,2.6s2.6-1.2,2.6-2.6c0-1.4-1.2-2.6-2.6-2.6S912.7,170.1,912.7,171.6z"/>
	<path class="st1" d="M919.5,168.5c0,1.4,1.2,2.6,2.6,2.6c1.4,0,2.6-1.2,2.6-2.6c0-1.4-1.2-2.6-2.6-2.6
		C920.7,165.9,919.5,167.1,919.5,168.5z"/>
	<path class="st1" d="M919.5,161.3c0,1.4,1.2,2.6,2.6,2.6c1.4,0,2.6-1.2,2.6-2.6c0-1.4-1.2-2.6-2.6-2.6
		C920.7,158.7,919.5,159.9,919.5,161.3z"/>
	<path class="st1" d="M944.8,165.3c0,1.4,1.2,2.6,2.6,2.6s2.6-1.2,2.6-2.6c0-1.4-1.2-2.6-2.6-2.6S944.8,163.9,944.8,165.3z"/>
	<path class="st1" d="M941.1,174.2c0,1.4,1.2,2.6,2.6,2.6s2.6-1.2,2.6-2.6s-1.2-2.6-2.6-2.6S941.1,172.7,941.1,174.2z"/>
	<path class="st1" d="M950.4,170.5c0,1.4,1.2,2.6,2.6,2.6c1.4,0,2.6-1.2,2.6-2.6c0-1.4-1.2-2.6-2.6-2.6
		C951.5,167.9,950.4,169,950.4,170.5z"/>
	<path class="st1" d="M951.6,164.5c0,1.4,1.2,2.6,2.6,2.6s2.6-1.2,2.6-2.6c0-1.4-1.2-2.6-2.6-2.6S951.6,163.1,951.6,164.5z"/>
	<path class="st1" d="M928.8,158.7c0,1.4,1.2,2.6,2.6,2.6c1.4,0,2.6-1.2,2.6-2.6c0-1.4-1.2-2.6-2.6-2.6
		C929.9,156.2,928.8,157.3,928.8,158.7z"/>
	<path class="st1" d="M932.7,175.3c0,1.4,1.2,2.6,2.6,2.6c1.4,0,2.6-1.2,2.6-2.6s-1.2-2.6-2.6-2.6
		C933.9,172.7,932.7,173.8,932.7,175.3z"/>
	<path class="st1" d="M943.7,157.8c0,1.4,1.2,2.6,2.6,2.6c1.4,0,2.6-1.2,2.6-2.6c0-1.4-1.2-2.6-2.6-2.6
		C944.8,155.2,943.7,156.4,943.7,157.8z"/>
	<path class="st1" d="M683.3,394.1c0,1.4,1.2,2.6,2.6,2.6c1.4,0,2.6-1.2,2.6-2.6c0-1.4-1.2-2.6-2.6-2.6
		C684.4,391.6,683.3,392.7,683.3,394.1z"/>
	<path class="st1" d="M567.9,31.1c0,1.4,1.2,2.6,2.6,2.6c1.4,0,2.6-1.2,2.6-2.6c0-1.4-1.2-2.6-2.6-2.6
		C569.1,28.5,567.9,29.7,567.9,31.1z"/>
	<path class="st1" d="M623.4,267.1c0,1.4,1.2,2.6,2.6,2.6s2.6-1.2,2.6-2.6c0-1.4-1.2-2.6-2.6-2.6S623.4,265.6,623.4,267.1z"/>
	<path class="st1" d="M517,229.6c0,1.4,1.2,2.6,2.6,2.6c1.4,0,2.6-1.2,2.6-2.6c0-1.4-1.2-2.6-2.6-2.6C518.2,227,517,228.2,517,229.6
		z"/>
	<path class="st1" d="M528.5,235.3c0,1.4,1.2,2.6,2.6,2.6c1.4,0,2.6-1.2,2.6-2.6c0-1.4-1.2-2.6-2.6-2.6
		C529.7,232.7,528.5,233.9,528.5,235.3z"/>
	<path class="st1" d="M528.9,228.1c0,1.4,1.2,2.6,2.6,2.6c1.4,0,2.6-1.2,2.6-2.6c0-1.4-1.2-2.6-2.6-2.6
		C530.1,225.6,528.9,226.7,528.9,228.1z"/>
	<path class="st1" d="M517.7,237.2c0,1.4,1.2,2.6,2.6,2.6c1.4,0,2.6-1.2,2.6-2.6s-1.2-2.6-2.6-2.6
		C518.9,234.6,517.7,235.7,517.7,237.2z"/>
	<path class="st1" d="M899.6,363.3c0,1.4,1.2,2.6,2.6,2.6s2.6-1.2,2.6-2.6c0-1.4-1.2-2.6-2.6-2.6S899.6,361.9,899.6,363.3z"/>
	<path class="st1" d="M769.5,481.9c0,1.4,1.2,2.6,2.6,2.6c1.4,0,2.6-1.2,2.6-2.6c0-1.4-1.2-2.6-2.6-2.6
		C770.6,479.3,769.5,480.5,769.5,481.9z"/>
	<path class="st1" d="M780.1,488.9c0,1.4,1.2,2.6,2.6,2.6c1.4,0,2.6-1.2,2.6-2.6c0-1.4-1.2-2.6-2.6-2.6
		C781.3,486.3,780.1,487.4,780.1,488.9z"/>
	<path class="st1" d="M940.8,278.1c0,1.4,1.2,2.6,2.6,2.6c1.4,0,2.6-1.2,2.6-2.6c0-1.4-1.2-2.6-2.6-2.6
		C942,275.5,940.8,276.7,940.8,278.1z"/>
	<path class="st1" d="M949.5,283.6c0,1.4,1.2,2.6,2.6,2.6c1.4,0,2.6-1.2,2.6-2.6c0-1.4-1.2-2.6-2.6-2.6
		C950.7,281,949.5,282.2,949.5,283.6z"/>
	<path class="st1" d="M961.2,273.8c0,1.4,1.2,2.6,2.6,2.6s2.6-1.2,2.6-2.6c0-1.4-1.2-2.6-2.6-2.6S961.2,272.4,961.2,273.8z"/>
	<path class="st1" d="M960.6,291.3c0,1.4,1.2,2.6,2.6,2.6c1.4,0,2.6-1.2,2.6-2.6c0-1.4-1.2-2.6-2.6-2.6
		C961.8,288.7,960.6,289.8,960.6,291.3z"/>
	<path class="st1" d="M929.9,291.3c0,1.4,1.2,2.6,2.6,2.6c1.4,0,2.6-1.2,2.6-2.6c0-1.4-1.2-2.6-2.6-2.6
		C931,288.7,929.9,289.8,929.9,291.3z"/>
	<path class="st1" d="M802.9,261.6c0,1.4,1.2,2.6,2.6,2.6c1.4,0,2.6-1.2,2.6-2.6c0-1.4-1.2-2.6-2.6-2.6
		C804.1,259,802.9,260.1,802.9,261.6z"/>
	<path class="st1" d="M970.3,191.6c0,1.4,1.2,2.6,2.6,2.6c1.4,0,2.6-1.2,2.6-2.6s-1.2-2.6-2.6-2.6
		C971.4,189,970.3,190.2,970.3,191.6z"/>
	<path class="st1" d="M656.3,97.3c0,1.4,1.2,2.6,2.6,2.6c1.4,0,2.6-1.2,2.6-2.6c0-1.4-1.2-2.6-2.6-2.6
		C657.5,94.7,656.3,95.8,656.3,97.3z"/>
	<path class="st1" d="M690.6,237.2c0,1.4,1.2,2.6,2.6,2.6c1.4,0,2.6-1.2,2.6-2.6s-1.2-2.6-2.6-2.6
		C691.8,234.6,690.6,235.7,690.6,237.2z"/>
	<path class="st1" d="M755.8,57c0,1.4,1.2,2.6,2.6,2.6c1.4,0,2.6-1.2,2.6-2.6c0-1.4-1.2-2.6-2.6-2.6C757,54.4,755.8,55.6,755.8,57z"
		/>
	<path class="st1" d="M764.9,64.9c0,1.4,1.2,2.6,2.6,2.6c1.4,0,2.6-1.2,2.6-2.6c0-1.4-1.2-2.6-2.6-2.6
		C766.1,62.3,764.9,63.5,764.9,64.9z"/>
	<path class="st1" d="M753.3,68.3c0,1.4,1.2,2.6,2.6,2.6s2.6-1.2,2.6-2.6c0-1.4-1.2-2.6-2.6-2.6S753.3,66.9,753.3,68.3z"/>
	<path class="st1" d="M738.8,66.2c0,1.4,1.2,2.6,2.6,2.6c1.4,0,2.6-1.2,2.6-2.6c0-1.4-1.2-2.6-2.6-2.6
		C740,63.7,738.8,64.8,738.8,66.2z"/>
	<path class="st1" d="M745.6,61.1c0,1.4,1.2,2.6,2.6,2.6s2.6-1.2,2.6-2.6c0-1.4-1.2-2.6-2.6-2.6S745.6,59.6,745.6,61.1z"/>
	<path class="st1" d="M767.8,55.3c0,1.4,1.2,2.6,2.6,2.6s2.6-1.2,2.6-2.6c0-1.4-1.2-2.6-2.6-2.6S767.8,53.9,767.8,55.3z"/>
	<path class="st1" d="M778.5,57.4c0,1.4,1.2,2.6,2.6,2.6c1.4,0,2.6-1.2,2.6-2.6c0-1.4-1.2-2.6-2.6-2.6
		C779.7,54.8,778.5,56,778.5,57.4z"/>
	<path class="st1" d="M778.5,64.4c0,1.4,1.2,2.6,2.6,2.6c1.4,0,2.6-1.2,2.6-2.6c0-1.4-1.2-2.6-2.6-2.6
		C779.7,61.8,778.5,63,778.5,64.4z"/>
	<path class="st1" d="M809.9,78.4c0,1.4,1.2,2.6,2.6,2.6s2.6-1.2,2.6-2.6s-1.2-2.6-2.6-2.6S809.9,77,809.9,78.4z"/>
	<path class="st1" d="M761.4,50.5c0,1.4,1.2,2.6,2.6,2.6c1.4,0,2.6-1.2,2.6-2.6c0-1.4-1.2-2.6-2.6-2.6
		C762.5,47.9,761.4,49.1,761.4,50.5z"/>
	<path class="st1" d="M607.6,140.3c0,1.4,1.2,2.6,2.6,2.6c1.4,0,2.6-1.2,2.6-2.6c0-1.4-1.2-2.6-2.6-2.6
		C608.8,137.7,607.6,138.8,607.6,140.3z"/>
	<path class="st1" d="M616.8,145.5c0,1.4,1.2,2.6,2.6,2.6c1.4,0,2.6-1.2,2.6-2.6c0-1.4-1.2-2.6-2.6-2.6
		C617.9,142.9,616.8,144.1,616.8,145.5z"/>
	<path class="st1" d="M608.6,156.1c0,1.4,1.2,2.6,2.6,2.6c1.4,0,2.6-1.2,2.6-2.6c0-1.4-1.2-2.6-2.6-2.6
		C609.7,153.6,608.6,154.7,608.6,156.1z"/>
	<path class="st1" d="M599.6,151.7c0,1.4,1.2,2.6,2.6,2.6c1.4,0,2.6-1.2,2.6-2.6c0-1.4-1.2-2.6-2.6-2.6
		C600.7,149.2,599.6,150.3,599.6,151.7z"/>
	<path class="st1" d="M602.2,150.1c0,1.4,1.2,2.6,2.6,2.6c1.4,0,2.6-1.2,2.6-2.6c0-1.4-1.2-2.6-2.6-2.6
		C603.3,147.5,602.2,148.6,602.2,150.1z"/>
	<path class="st1" d="M628.5,143.5c0,1.4,1.2,2.6,2.6,2.6s2.6-1.2,2.6-2.6c0-1.4-1.2-2.6-2.6-2.6S628.5,142.1,628.5,143.5z"/>
	<path class="st1" d="M624.7,156.1c0,1.4,1.2,2.6,2.6,2.6c1.4,0,2.6-1.2,2.6-2.6c0-1.4-1.2-2.6-2.6-2.6
		C625.8,153.6,624.7,154.7,624.7,156.1z"/>
	<path class="st1" d="M597,137.7c0,1.4,1.2,2.6,2.6,2.6c1.4,0,2.6-1.2,2.6-2.6c0-1.4-1.2-2.6-2.6-2.6
		C598.1,135.1,597,136.3,597,137.7z"/>
	<path class="st1" d="M618.1,138.5c0,1.4,1.2,2.6,2.6,2.6c1.4,0,2.6-1.2,2.6-2.6c0-1.4-1.2-2.6-2.6-2.6
		C619.2,135.9,618.1,137.1,618.1,138.5z"/>
	<path class="st1" d="M832.9,301.2c0,1.4,1.2,2.6,2.6,2.6s2.6-1.2,2.6-2.6c0-1.4-1.2-2.6-2.6-2.6S832.9,299.8,832.9,301.2z"/>
	<path class="st1" d="M739.2,157.2c0,1.4,1.2,2.6,2.6,2.6c1.4,0,2.6-1.2,2.6-2.6c0-1.4-1.2-2.6-2.6-2.6
		C740.4,154.6,739.2,155.8,739.2,157.2z"/>
	<path class="st1" d="M272.5,198.6c0,1.4,1.2,2.6,2.6,2.6c1.4,0,2.6-1.2,2.6-2.6c0-1.4-1.2-2.6-2.6-2.6
		C273.7,196,272.5,197.1,272.5,198.6z"/>
	<path class="st1" d="M281.3,200.3c0,1.4,1.2,2.6,2.6,2.6c1.4,0,2.6-1.2,2.6-2.6c0-1.4-1.2-2.6-2.6-2.6
		C282.4,197.7,281.3,198.9,281.3,200.3z"/>
	<path class="st1" d="M274.5,207.4c0,1.4,1.2,2.6,2.6,2.6c1.4,0,2.6-1.2,2.6-2.6c0-1.4-1.2-2.6-2.6-2.6
		C275.7,204.8,274.5,205.9,274.5,207.4z"/>
	<path class="st1" d="M257.5,210.5c0,1.4,1.2,2.6,2.6,2.6s2.6-1.2,2.6-2.6s-1.2-2.6-2.6-2.6S257.5,209,257.5,210.5z"/>
	<path class="st1" d="M291.8,208.5c0,1.4,1.2,2.6,2.6,2.6c1.4,0,2.6-1.2,2.6-2.6c0-1.4-1.2-2.6-2.6-2.6
		C293,205.9,291.8,207,291.8,208.5z"/>
	<path class="st1" d="M293.2,199.9c0,1.4,1.2,2.6,2.6,2.6c1.4,0,2.6-1.2,2.6-2.6c0-1.4-1.2-2.6-2.6-2.6
		C294.3,197.3,293.2,198.5,293.2,199.9z"/>
	<path class="st1" d="M282.8,193.1c0,1.4,1.2,2.6,2.6,2.6c1.4,0,2.6-1.2,2.6-2.6c0-1.4-1.2-2.6-2.6-2.6
		C283.9,190.6,282.8,191.7,282.8,193.1z"/>
	<path class="st1" d="M752.8,292.7c0,1.4,1.2,2.6,2.6,2.6c1.4,0,2.6-1.2,2.6-2.6c0-1.4-1.2-2.6-2.6-2.6
		C754,290.1,752.8,291.2,752.8,292.7z"/>
	<path class="st1" d="M843.5,209.4c0,1.4,1.2,2.6,2.6,2.6c1.4,0,2.6-1.2,2.6-2.6c0-1.4-1.2-2.6-2.6-2.6
		C844.6,206.9,843.5,208,843.5,209.4z"/>
	<path class="st1" d="M954.2,201.7c0,1.4,1.2,2.6,2.6,2.6s2.6-1.2,2.6-2.6c0-1.4-1.2-2.6-2.6-2.6S954.2,200.3,954.2,201.7z"/>
	<path class="st1" d="M964.1,205.3c0,1.4,1.2,2.6,2.6,2.6c1.4,0,2.6-1.2,2.6-2.6c0-1.4-1.2-2.6-2.6-2.6
		C965.2,202.7,964.1,203.9,964.1,205.3z"/>
	<path class="st1" d="M975.5,201.7c0,1.4,1.2,2.6,2.6,2.6c1.4,0,2.6-1.2,2.6-2.6c0-1.4-1.2-2.6-2.6-2.6
		C976.6,199.1,975.5,200.3,975.5,201.7z"/>
	<path class="st1" d="M987.3,202.7c0,1.4,1.2,2.6,2.6,2.6c1.4,0,2.6-1.2,2.6-2.6c0-1.4-1.2-2.6-2.6-2.6
		C988.5,200.1,987.3,201.3,987.3,202.7z"/>
	<path class="st1" d="M978,214.4c0,1.4,1.2,2.6,2.6,2.6c1.4,0,2.6-1.2,2.6-2.6c0-1.4-1.2-2.6-2.6-2.6C979.2,211.9,978,213,978,214.4
		z"/>
	<path class="st1" d="M962.3,209.2c0,1.4,1.2,2.6,2.6,2.6c1.4,0,2.6-1.2,2.6-2.6c0-1.4-1.2-2.6-2.6-2.6
		C963.5,206.6,962.3,207.8,962.3,209.2z"/>
	<path class="st1" d="M989.3,210.4c0,1.4,1.2,2.6,2.6,2.6c1.4,0,2.6-1.2,2.6-2.6c0-1.4-1.2-2.6-2.6-2.6
		C990.5,207.9,989.3,209,989.3,210.4z"/>
	<path class="st1" d="M368.9,237.3c0,1.4,1.2,2.6,2.6,2.6c1.4,0,2.6-1.2,2.6-2.6s-1.2-2.6-2.6-2.6
		C370,234.7,368.9,235.9,368.9,237.3z"/>
	<path class="st1" d="M373.7,243.9c0,1.4,1.2,2.6,2.6,2.6c1.4,0,2.6-1.2,2.6-2.6c0-1.4-1.2-2.6-2.6-2.6
		C374.9,241.3,373.7,242.5,373.7,243.9z"/>
	<path class="st1" d="M388.6,240.4c0,1.4,1.2,2.6,2.6,2.6c1.4,0,2.6-1.2,2.6-2.6c0-1.4-1.2-2.6-2.6-2.6
		C389.8,237.8,388.6,239,388.6,240.4z"/>
	<path class="st1" d="M384.4,245c0,1.4,1.2,2.6,2.6,2.6c1.4,0,2.6-1.2,2.6-2.6c0-1.4-1.2-2.6-2.6-2.6
		C385.5,242.4,384.4,243.5,384.4,245z"/>
	<path class="st1" d="M500.8,565.3c0,1.4,1.2,2.6,2.6,2.6c1.4,0,2.6-1.2,2.6-2.6c0-1.4-1.2-2.6-2.6-2.6
		C501.9,562.7,500.8,563.8,500.8,565.3z"/>
	<path class="st1" d="M514.4,573.9c0,1.4,1.2,2.6,2.6,2.6s2.6-1.2,2.6-2.6c0-1.4-1.2-2.6-2.6-2.6S514.4,572.4,514.4,573.9z"/>
	<path class="st1" d="M483,557.1c0,1.4,1.2,2.6,2.6,2.6c1.4,0,2.6-1.2,2.6-2.6c0-1.4-1.2-2.6-2.6-2.6
		C484.2,554.5,483,555.7,483,557.1z"/>
	<path class="st1" d="M486.4,577.7c0,1.4,1.2,2.6,2.6,2.6c1.4,0,2.6-1.2,2.6-2.6s-1.2-2.6-2.6-2.6
		C487.5,575.1,486.4,576.3,486.4,577.7z"/>
	<path class="st1" d="M511,562.7c0,1.4,1.2,2.6,2.6,2.6c1.4,0,2.6-1.2,2.6-2.6c0-1.4-1.2-2.6-2.6-2.6
		C512.1,560.1,511,561.3,511,562.7z"/>
	<path class="st1" d="M471.7,564.2c0,1.4,1.2,2.6,2.6,2.6c1.4,0,2.6-1.2,2.6-2.6c0-1.4-1.2-2.6-2.6-2.6
		C472.9,561.6,471.7,562.8,471.7,564.2z"/>
	<path class="st1" d="M778.3,568.5c0,1.4,1.2,2.6,2.6,2.6c1.4,0,2.6-1.2,2.6-2.6c0-1.4-1.2-2.6-2.6-2.6
		C779.5,565.9,778.3,567,778.3,568.5z"/>
	<path class="st1" d="M789.3,579c0,1.4,1.2,2.6,2.6,2.6s2.6-1.2,2.6-2.6c0-1.4-1.2-2.6-2.6-2.6S789.3,577.6,789.3,579z"/>
	<path class="st1" d="M775.7,585.8c0,1.4,1.2,2.6,2.6,2.6s2.6-1.2,2.6-2.6s-1.2-2.6-2.6-2.6S775.7,584.4,775.7,585.8z"/>
	<path class="st1" d="M744.7,622.3c0,1.4,1.2,2.6,2.6,2.6c1.4,0,2.6-1.2,2.6-2.6c0-1.4-1.2-2.6-2.6-2.6
		C745.9,619.8,744.7,620.9,744.7,622.3z"/>
	<path class="st1" d="M503.5,131.5c0,1.4,1.2,2.6,2.6,2.6c1.4,0,2.6-1.2,2.6-2.6s-1.2-2.6-2.6-2.6
		C504.6,128.9,503.5,130.1,503.5,131.5z"/>
	<path class="st1" d="M515.6,125.5c0,1.4,1.2,2.6,2.6,2.6c1.4,0,2.6-1.2,2.6-2.6s-1.2-2.6-2.6-2.6
		C516.8,123,515.6,124.1,515.6,125.5z"/>
	<path class="st1" d="M495.6,121.7c0,1.4,1.2,2.6,2.6,2.6c1.4,0,2.6-1.2,2.6-2.6c0-1.4-1.2-2.6-2.6-2.6
		C496.8,119.1,495.6,120.3,495.6,121.7z"/>
	<path class="st1" d="M522.5,133.3c0,1.4,1.2,2.6,2.6,2.6s2.6-1.2,2.6-2.6c0-1.4-1.2-2.6-2.6-2.6S522.5,131.9,522.5,133.3z"/>
	<path class="st1" d="M389.2,213.2c0,1.4,1.2,2.6,2.6,2.6c1.4,0,2.6-1.2,2.6-2.6c0-1.4-1.2-2.6-2.6-2.6
		C390.3,210.6,389.2,211.8,389.2,213.2z"/>
	<path class="st1" d="M384.4,222.9c0,1.4,1.2,2.6,2.6,2.6c1.4,0,2.6-1.2,2.6-2.6c0-1.4-1.2-2.6-2.6-2.6
		C385.5,220.3,384.4,221.4,384.4,222.9z"/>
	<path class="st1" d="M378.2,218c0,1.4,1.2,2.6,2.6,2.6c1.4,0,2.6-1.2,2.6-2.6c0-1.4-1.2-2.6-2.6-2.6
		C379.4,215.4,378.2,216.5,378.2,218z"/>
	<path class="st1" d="M370.5,219c0,1.4,1.2,2.6,2.6,2.6c1.4,0,2.6-1.2,2.6-2.6c0-1.4-1.2-2.6-2.6-2.6
		C371.7,216.5,370.5,217.6,370.5,219z"/>
	<path class="st1" d="M373.7,225.4c0,1.4,1.2,2.6,2.6,2.6c1.4,0,2.6-1.2,2.6-2.6c0-1.4-1.2-2.6-2.6-2.6
		C374.9,222.9,373.7,224,373.7,225.4z"/>
	<path class="st1" d="M379.8,214.8c0,1.4,1.2,2.6,2.6,2.6c1.4,0,2.6-1.2,2.6-2.6c0-1.4-1.2-2.6-2.6-2.6
		C381,212.3,379.8,213.4,379.8,214.8z"/>
	<path class="st1" d="M363.2,195.1c0,1.4,1.2,2.6,2.6,2.6c1.4,0,2.6-1.2,2.6-2.6c0-1.4-1.2-2.6-2.6-2.6
		C364.4,192.6,363.2,193.7,363.2,195.1z"/>
	<path class="st1" d="M356.6,201.7c0,1.4,1.2,2.6,2.6,2.6c1.4,0,2.6-1.2,2.6-2.6c0-1.4-1.2-2.6-2.6-2.6
		C357.8,199.1,356.6,200.3,356.6,201.7z"/>
	<path class="st1" d="M363.2,204.8c0,1.4,1.2,2.6,2.6,2.6c1.4,0,2.6-1.2,2.6-2.6c0-1.4-1.2-2.6-2.6-2.6
		C364.4,202.2,363.2,203.4,363.2,204.8z"/>
	<path class="st1" d="M369.7,201.1c0,1.4,1.2,2.6,2.6,2.6c1.4,0,2.6-1.2,2.6-2.6c0-1.4-1.2-2.6-2.6-2.6
		C370.8,198.6,369.7,199.7,369.7,201.1z"/>
	<path class="st1" d="M371.1,192.6c0,1.4,1.2,2.6,2.6,2.6c1.4,0,2.6-1.2,2.6-2.6c0-1.4-1.2-2.6-2.6-2.6
		C372.3,190,371.1,191.1,371.1,192.6z"/>
	<path class="st1" d="M375.2,197.7c0,1.4,1.2,2.6,2.6,2.6c1.4,0,2.6-1.2,2.6-2.6c0-1.4-1.2-2.6-2.6-2.6
		C376.4,195.2,375.2,196.3,375.2,197.7z"/>
	<path class="st1" d="M361.3,190c0,1.4,1.2,2.6,2.6,2.6c1.4,0,2.6-1.2,2.6-2.6c0-1.4-1.2-2.6-2.6-2.6
		C362.4,187.4,361.3,188.6,361.3,190z"/>
	<path class="st1" d="M352.5,193.1c0,1.4,1.2,2.6,2.6,2.6s2.6-1.2,2.6-2.6c0-1.4-1.2-2.6-2.6-2.6S352.5,191.7,352.5,193.1z"/>
	<path class="st1" d="M344.5,193.1c0,1.4,1.2,2.6,2.6,2.6c1.4,0,2.6-1.2,2.6-2.6c0-1.4-1.2-2.6-2.6-2.6
		C345.6,190.6,344.5,191.7,344.5,193.1z"/>
	<path class="st1" d="M339.8,199.1c0,1.4,1.2,2.6,2.6,2.6c1.4,0,2.6-1.2,2.6-2.6c0-1.4-1.2-2.6-2.6-2.6
		C340.9,196.5,339.8,197.7,339.8,199.1z"/>
	<path class="st1" d="M335.7,194c0,1.4,1.2,2.6,2.6,2.6c1.4,0,2.6-1.2,2.6-2.6s-1.2-2.6-2.6-2.6C336.9,191.5,335.7,192.6,335.7,194z
		"/>
	<path class="st1" d="M346.5,204.3c0,1.4,1.2,2.6,2.6,2.6c1.4,0,2.6-1.2,2.6-2.6s-1.2-2.6-2.6-2.6
		C347.6,201.7,346.5,202.8,346.5,204.3z"/>
	<path class="st1" d="M350,199.1c0,1.4,1.2,2.6,2.6,2.6c1.4,0,2.6-1.2,2.6-2.6c0-1.4-1.2-2.6-2.6-2.6
		C351.2,196.5,350,197.7,350,199.1z"/>
	<path class="st1" d="M353.7,204.3c0,1.4,1.2,2.6,2.6,2.6c1.4,0,2.6-1.2,2.6-2.6s-1.2-2.6-2.6-2.6
		C354.8,201.7,353.7,202.8,353.7,204.3z"/>
	<path class="st1" d="M354,190c0,1.4,1.2,2.6,2.6,2.6c1.4,0,2.6-1.2,2.6-2.6c0-1.4-1.2-2.6-2.6-2.6C355.2,187.4,354,188.6,354,190z"
		/>
	<path class="st1" d="M346.5,187.2c0,1.4,1.2,2.6,2.6,2.6c1.4,0,2.6-1.2,2.6-2.6c0-1.4-1.2-2.6-2.6-2.6
		C347.6,184.6,346.5,185.8,346.5,187.2z"/>
	<path class="st1" d="M368.5,186.5c0,1.4,1.2,2.6,2.6,2.6c1.4,0,2.6-1.2,2.6-2.6c0-1.4-1.2-2.6-2.6-2.6
		C369.7,184,368.5,185.1,368.5,186.5z"/>
	<path class="st1" d="M373.7,189.8c0,1.4,1.2,2.6,2.6,2.6c1.4,0,2.6-1.2,2.6-2.6c0-1.4-1.2-2.6-2.6-2.6
		C374.9,187.2,373.7,188.4,373.7,189.8z"/>
	<path class="st1" d="M377.3,201.1c0,1.4,1.2,2.6,2.6,2.6c1.4,0,2.6-1.2,2.6-2.6c0-1.4-1.2-2.6-2.6-2.6
		C378.4,198.6,377.3,199.7,377.3,201.1z"/>
	<path class="st1" d="M384.4,198.6c0,1.4,1.2,2.6,2.6,2.6c1.4,0,2.6-1.2,2.6-2.6c0-1.4-1.2-2.6-2.6-2.6
		C385.5,196,384.4,197.1,384.4,198.6z"/>
	<path class="st1" d="M371.1,204.8c0,1.4,1.2,2.6,2.6,2.6c1.4,0,2.6-1.2,2.6-2.6c0-1.4-1.2-2.6-2.6-2.6
		C372.3,202.2,371.1,203.4,371.1,204.8z"/>
	<path class="st1" d="M336.4,205.3c0,1.4,1.2,2.6,2.6,2.6c1.4,0,2.6-1.2,2.6-2.6c0-1.4-1.2-2.6-2.6-2.6
		C337.6,202.7,336.4,203.9,336.4,205.3z"/>
	<path class="st1" d="M331.3,199.9c0,1.4,1.2,2.6,2.6,2.6c1.4,0,2.6-1.2,2.6-2.6c0-1.4-1.2-2.6-2.6-2.6
		C332.4,197.3,331.3,198.5,331.3,199.9z"/>
	<path class="st1" d="M396.6,212.8c0,1.4,1.2,2.6,2.6,2.6c1.4,0,2.6-1.2,2.6-2.6c0-1.4-1.2-2.6-2.6-2.6
		C397.8,210.2,396.6,211.4,396.6,212.8z"/>
	<path class="st1" d="M407,221.1c0,1.4,1.2,2.6,2.6,2.6c1.4,0,2.6-1.2,2.6-2.6c0-1.4-1.2-2.6-2.6-2.6
		C408.1,218.6,407,219.7,407,221.1z"/>
	<path class="st1" d="M405.9,214.5c0,1.4,1.2,2.6,2.6,2.6c1.4,0,2.6-1.2,2.6-2.6c0-1.4-1.2-2.6-2.6-2.6
		C407,211.9,405.9,213,405.9,214.5z"/>
	<path class="st1" d="M414.5,223.8c0,1.4,1.2,2.6,2.6,2.6c1.4,0,2.6-1.2,2.6-2.6c0-1.4-1.2-2.6-2.6-2.6
		C415.7,221.3,414.5,222.4,414.5,223.8z"/>
	<path class="st1" d="M415,217c0,1.4,1.2,2.6,2.6,2.6c1.4,0,2.6-1.2,2.6-2.6s-1.2-2.6-2.6-2.6C416.1,214.5,415,215.6,415,217z"/>
	<path class="st1" d="M400.7,224.3c0,1.4,1.2,2.6,2.6,2.6c1.4,0,2.6-1.2,2.6-2.6s-1.2-2.6-2.6-2.6
		C401.9,221.7,400.7,222.8,400.7,224.3z"/>
	<path class="st1" d="M391.8,226.8c0,1.4,1.2,2.6,2.6,2.6c1.4,0,2.6-1.2,2.6-2.6c0-1.4-1.2-2.6-2.6-2.6
		C392.9,224.3,391.8,225.4,391.8,226.8z"/>
	<path class="st1" d="M388.2,210.2c0,1.4,1.2,2.6,2.6,2.6c1.4,0,2.6-1.2,2.6-2.6c0-1.4-1.2-2.6-2.6-2.6
		C389.4,207.6,388.2,208.8,388.2,210.2z"/>
	<path class="st1" d="M368.2,219c0,1.4,1.2,2.6,2.6,2.6c1.4,0,2.6-1.2,2.6-2.6c0-1.4-1.2-2.6-2.6-2.6
		C369.4,216.5,368.2,217.6,368.2,219z"/>
	<path class="st1" d="M382.7,225.8c0,1.4,1.2,2.6,2.6,2.6c1.4,0,2.6-1.2,2.6-2.6s-1.2-2.6-2.6-2.6
		C383.9,223.2,382.7,224.4,382.7,225.8z"/>
	<path class="st1" d="M403.6,211c0,1.4,1.2,2.6,2.6,2.6c1.4,0,2.6-1.2,2.6-2.6c0-1.4-1.2-2.6-2.6-2.6
		C404.8,208.5,403.6,209.6,403.6,211z"/>
	<path class="st1" d="M414,212.8c0,1.4,1.2,2.6,2.6,2.6c1.4,0,2.6-1.2,2.6-2.6c0-1.4-1.2-2.6-2.6-2.6
		C415.1,210.2,414,211.4,414,212.8z"/>
	<path class="st1" d="M419.8,221.6c0,1.4,1.2,2.6,2.6,2.6c1.4,0,2.6-1.2,2.6-2.6c0-1.4-1.2-2.6-2.6-2.6
		C420.9,219,419.8,220.2,419.8,221.6z"/>
	<path class="st1" d="M430.8,231.6c0,1.4,1.2,2.6,2.6,2.6c1.4,0,2.6-1.2,2.6-2.6c0-1.4-1.2-2.6-2.6-2.6
		C431.9,229,430.8,230.2,430.8,231.6z"/>
	<path class="st1" d="M437.6,234.2c0,1.4,1.2,2.6,2.6,2.6c1.4,0,2.6-1.2,2.6-2.6c0-1.4-1.2-2.6-2.6-2.6
		C438.7,231.6,437.6,232.7,437.6,234.2z"/>
	<path class="st1" d="M447.1,236c0,1.4,1.2,2.6,2.6,2.6c1.4,0,2.6-1.2,2.6-2.6c0-1.4-1.2-2.6-2.6-2.6
		C448.2,233.5,447.1,234.6,447.1,236z"/>
	<path class="st1" d="M445.6,231.3c0,1.4,1.2,2.6,2.6,2.6c1.4,0,2.6-1.2,2.6-2.6c0-1.4-1.2-2.6-2.6-2.6
		C446.7,228.7,445.6,229.8,445.6,231.3z"/>
	<path class="st1" d="M439.7,232c0,1.4,1.2,2.6,2.6,2.6s2.6-1.2,2.6-2.6c0-1.4-1.2-2.6-2.6-2.6S439.7,230.6,439.7,232z"/>
	<path class="st1" d="M431.9,240.4c0,1.4,1.2,2.6,2.6,2.6c1.4,0,2.6-1.2,2.6-2.6c0-1.4-1.2-2.6-2.6-2.6
		C433.1,237.8,431.9,239,431.9,240.4z"/>
	<path class="st1" d="M441.2,246.5c0,1.4,1.2,2.6,2.6,2.6c1.4,0,2.6-1.2,2.6-2.6c0-1.4-1.2-2.6-2.6-2.6
		C442.4,243.9,441.2,245.1,441.2,246.5z"/>
	<path class="st1" d="M449.8,244.5c0,1.4,1.2,2.6,2.6,2.6c1.4,0,2.6-1.2,2.6-2.6s-1.2-2.6-2.6-2.6
		C451,241.9,449.8,243.1,449.8,244.5z"/>
	<path class="st1" d="M456,239.3c0,1.4,1.2,2.6,2.6,2.6c1.4,0,2.6-1.2,2.6-2.6c0-1.4-1.2-2.6-2.6-2.6
		C457.1,236.8,456,237.9,456,239.3z"/>
	<path class="st1" d="M453,232.7c0,1.4,1.2,2.6,2.6,2.6c1.4,0,2.6-1.2,2.6-2.6c0-1.4-1.2-2.6-2.6-2.6
		C454.1,230.1,453,231.2,453,232.7z"/>
	<path class="st1" d="M440.4,240.4c0,1.4,1.2,2.6,2.6,2.6c1.4,0,2.6-1.2,2.6-2.6c0-1.4-1.2-2.6-2.6-2.6
		C441.5,237.8,440.4,239,440.4,240.4z"/>
	<path class="st1" d="M432.9,245.5c0,1.4,1.2,2.6,2.6,2.6c1.4,0,2.6-1.2,2.6-2.6c0-1.4-1.2-2.6-2.6-2.6
		C434,243,432.9,244.1,432.9,245.5z"/>
	<path class="st1" d="M424.9,238.6c0,1.4,1.2,2.6,2.6,2.6c1.4,0,2.6-1.2,2.6-2.6s-1.2-2.6-2.6-2.6
		C426.1,236,424.9,237.2,424.9,238.6z"/>
	<path class="st1" d="M424.6,245.5c0,1.4,1.2,2.6,2.6,2.6c1.4,0,2.6-1.2,2.6-2.6c0-1.4-1.2-2.6-2.6-2.6
		C425.7,243,424.6,244.1,424.6,245.5z"/>
	<path class="st1" d="M444.8,248.1c0,1.4,1.2,2.6,2.6,2.6s2.6-1.2,2.6-2.6c0-1.4-1.2-2.6-2.6-2.6S444.8,246.7,444.8,248.1z"/>
	<path class="st1" d="M453.4,245.5c0,1.4,1.2,2.6,2.6,2.6c1.4,0,2.6-1.2,2.6-2.6c0-1.4-1.2-2.6-2.6-2.6
		C454.6,243,453.4,244.1,453.4,245.5z"/>
	<path class="st1" d="M424.1,231.6c0,1.4,1.2,2.6,2.6,2.6c1.4,0,2.6-1.2,2.6-2.6c0-1.4-1.2-2.6-2.6-2.6
		C425.2,229,424.1,230.2,424.1,231.6z"/>
	<path class="st1" d="M417.9,239.9c0,1.4,1.2,2.6,2.6,2.6c1.4,0,2.6-1.2,2.6-2.6c0-1.4-1.2-2.6-2.6-2.6
		C419,237.3,417.9,238.5,417.9,239.9z"/>
	<path class="st1" d="M428.7,251.7c0,1.4,1.2,2.6,2.6,2.6c1.4,0,2.6-1.2,2.6-2.6c0-1.4-1.2-2.6-2.6-2.6
		C429.8,249.1,428.7,250.2,428.7,251.7z"/>
	<path class="st1" d="M399.9,218c0,1.4,1.2,2.6,2.6,2.6c1.4,0,2.6-1.2,2.6-2.6c0-1.4-1.2-2.6-2.6-2.6
		C401.1,215.4,399.9,216.5,399.9,218z"/>
	<path class="st1" d="M407.9,225.3c0,1.4,1.2,2.6,2.6,2.6s2.6-1.2,2.6-2.6c0-1.4-1.2-2.6-2.6-2.6S407.9,223.8,407.9,225.3z"/>
	<path class="st1" d="M241.2,299.3c0,1.4,1.2,2.6,2.6,2.6c1.4,0,2.6-1.2,2.6-2.6s-1.2-2.6-2.6-2.6
		C242.4,296.7,241.2,297.8,241.2,299.3z"/>
	<path class="st1" d="M253.5,295.8c0,1.4,1.2,2.6,2.6,2.6c1.4,0,2.6-1.2,2.6-2.6c0-1.4-1.2-2.6-2.6-2.6
		C254.6,293.2,253.5,294.4,253.5,295.8z"/>
	<path class="st1" d="M260.9,312.3c0,1.4,1.2,2.6,2.6,2.6c1.4,0,2.6-1.2,2.6-2.6c0-1.4-1.2-2.6-2.6-2.6
		C262,309.7,260.9,310.8,260.9,312.3z"/>
	<path class="st1" d="M237.5,312.3c0,1.4,1.2,2.6,2.6,2.6s2.6-1.2,2.6-2.6c0-1.4-1.2-2.6-2.6-2.6S237.5,310.8,237.5,312.3z"/>
	<path class="st1" d="M228.4,301.3c0,1.4,1.2,2.6,2.6,2.6s2.6-1.2,2.6-2.6c0-1.4-1.2-2.6-2.6-2.6S228.4,299.8,228.4,301.3z"/>
	<path class="st1" d="M260.9,305.3c0,1.4,1.2,2.6,2.6,2.6c1.4,0,2.6-1.2,2.6-2.6c0-1.4-1.2-2.6-2.6-2.6
		C262,302.7,260.9,303.9,260.9,305.3z"/>
	<path class="st1" d="M268.7,300.2c0,1.4,1.2,2.6,2.6,2.6c1.4,0,2.6-1.2,2.6-2.6c0-1.4-1.2-2.6-2.6-2.6
		C269.8,297.6,268.7,298.8,268.7,300.2z"/>
	<path class="st1" d="M161.4,259.7c0,1.4,1.2,2.6,2.6,2.6s2.6-1.2,2.6-2.6c0-1.4-1.2-2.6-2.6-2.6S161.4,258.3,161.4,259.7z"/>
	<path class="st1" d="M541.8,418c0,1.4,1.2,2.6,2.6,2.6c1.4,0,2.6-1.2,2.6-2.6c0-1.4-1.2-2.6-2.6-2.6
		C542.9,415.4,541.8,416.5,541.8,418z"/>
	<path class="st1" d="M489.6,149.2c0,1.4,1.2,2.6,2.6,2.6c1.4,0,2.6-1.2,2.6-2.6c0-1.4-1.2-2.6-2.6-2.6
		C490.8,146.6,489.6,147.7,489.6,149.2z"/>
	<path class="st1" d="M496.1,155.2c0,1.4,1.2,2.6,2.6,2.6c1.4,0,2.6-1.2,2.6-2.6c0-1.4-1.2-2.6-2.6-2.6
		C497.3,152.6,496.1,153.8,496.1,155.2z"/>
	<path class="st1" d="M503.9,148.8c0,1.4,1.2,2.6,2.6,2.6c1.4,0,2.6-1.2,2.6-2.6c0-1.4-1.2-2.6-2.6-2.6
		C505,146.2,503.9,147.3,503.9,148.8z"/>
	<path class="st1" d="M512,156.1c0,1.4,1.2,2.6,2.6,2.6c1.4,0,2.6-1.2,2.6-2.6c0-1.4-1.2-2.6-2.6-2.6
		C513.2,153.6,512,154.7,512,156.1z"/>
	<path class="st1" d="M516.3,149.5c0,1.4,1.2,2.6,2.6,2.6s2.6-1.2,2.6-2.6c0-1.4-1.2-2.6-2.6-2.6S516.3,148.1,516.3,149.5z"/>
	<path class="st1" d="M491.6,156.8c0,1.4,1.2,2.6,2.6,2.6c1.4,0,2.6-1.2,2.6-2.6c0-1.4-1.2-2.6-2.6-2.6
		C492.7,154.2,491.6,155.4,491.6,156.8z"/>
	<path class="st1" d="M478.3,150.7c0,1.4,1.2,2.6,2.6,2.6c1.4,0,2.6-1.2,2.6-2.6c0-1.4-1.2-2.6-2.6-2.6
		C479.5,148.1,478.3,149.3,478.3,150.7z"/>
	<path class="st1" d="M313.8,634c0,1.4,1.2,2.6,2.6,2.6c1.4,0,2.6-1.2,2.6-2.6c0-1.4-1.2-2.6-2.6-2.6
		C315,631.4,313.8,632.5,313.8,634z"/>
	<path class="st1" d="M322.1,650.1c0,1.4,1.2,2.6,2.6,2.6c1.4,0,2.6-1.2,2.6-2.6c0-1.4-1.2-2.6-2.6-2.6
		C323.2,647.5,322.1,648.6,322.1,650.1z"/>
	<path class="st1" d="M313.8,654.7c0,1.4,1.2,2.6,2.6,2.6c1.4,0,2.6-1.2,2.6-2.6c0-1.4-1.2-2.6-2.6-2.6
		C315,652.1,313.8,653.2,313.8,654.7z"/>
	<path class="st1" d="M303.2,641.8c0,1.4,1.2,2.6,2.6,2.6c1.4,0,2.6-1.2,2.6-2.6c0-1.4-1.2-2.6-2.6-2.6
		C304.3,639.2,303.2,640.4,303.2,641.8z"/>
	<path class="st1" d="M302.5,620.9c0,1.4,1.2,2.6,2.6,2.6c1.4,0,2.6-1.2,2.6-2.6c0-1.4-1.2-2.6-2.6-2.6
		C303.7,618.4,302.5,619.5,302.5,620.9z"/>
	<path class="st1" d="M311.7,616.3c0,1.4,1.2,2.6,2.6,2.6c1.4,0,2.6-1.2,2.6-2.6c0-1.4-1.2-2.6-2.6-2.6
		C312.9,613.7,311.7,614.9,311.7,616.3z"/>
	<path class="st1" d="M319,617.8c0,1.4,1.2,2.6,2.6,2.6c1.4,0,2.6-1.2,2.6-2.6c0-1.4-1.2-2.6-2.6-2.6
		C320.2,615.3,319,616.4,319,617.8z"/>
	<path class="st1" d="M295.8,616.8c0,1.4,1.2,2.6,2.6,2.6c1.4,0,2.6-1.2,2.6-2.6c0-1.4-1.2-2.6-2.6-2.6
		C296.9,614.3,295.8,615.4,295.8,616.8z"/>
	<path class="st1" d="M326.6,640.8c0,1.4,1.2,2.6,2.6,2.6c1.4,0,2.6-1.2,2.6-2.6c0-1.4-1.2-2.6-2.6-2.6
		C327.7,638.2,326.6,639.4,326.6,640.8z"/>
	<path class="st1" d="M329.6,639.9c0,1.4,1.2,2.6,2.6,2.6c1.4,0,2.6-1.2,2.6-2.6s-1.2-2.6-2.6-2.6
		C330.8,637.3,329.6,638.5,329.6,639.9z"/>
	<path class="st1" d="M341.5,642.5c0,1.4,1.2,2.6,2.6,2.6c1.4,0,2.6-1.2,2.6-2.6c0-1.4-1.2-2.6-2.6-2.6
		C342.6,639.9,341.5,641.1,341.5,642.5z"/>
	<path class="st1" d="M336.3,650.1c0,1.4,1.2,2.6,2.6,2.6c1.4,0,2.6-1.2,2.6-2.6c0-1.4-1.2-2.6-2.6-2.6
		C337.5,647.5,336.3,648.6,336.3,650.1z"/>
	<path class="st1" d="M310.5,646c0,1.4,1.2,2.6,2.6,2.6c1.4,0,2.6-1.2,2.6-2.6c0-1.4-1.2-2.6-2.6-2.6
		C311.6,643.4,310.5,644.5,310.5,646z"/>
	<path class="st1" d="M299.2,633.5c0,1.4,1.2,2.6,2.6,2.6c1.4,0,2.6-1.2,2.6-2.6c0-1.4-1.2-2.6-2.6-2.6
		C300.4,630.9,299.2,632.1,299.2,633.5z"/>
	<path class="st1" d="M912.8,431c0,1.4,1.2,2.6,2.6,2.6c1.4,0,2.6-1.2,2.6-2.6c0-1.4-1.2-2.6-2.6-2.6
		C913.9,428.5,912.8,429.6,912.8,431z"/>
	<path class="st1" d="M932.3,441.5c0,1.4,1.2,2.6,2.6,2.6c1.4,0,2.6-1.2,2.6-2.6c0-1.4-1.2-2.6-2.6-2.6
		C933.4,438.9,932.3,440.1,932.3,441.5z"/>
	<path class="st1" d="M270.5,403.2c0,1.4,1.2,2.6,2.6,2.6c1.4,0,2.6-1.2,2.6-2.6c0-1.4-1.2-2.6-2.6-2.6
		C271.6,400.6,270.5,401.8,270.5,403.2z"/>
	<path class="st1" d="M283.2,402.2c0,1.4,1.2,2.6,2.6,2.6c1.4,0,2.6-1.2,2.6-2.6c0-1.4-1.2-2.6-2.6-2.6
		C284.4,399.6,283.2,400.8,283.2,402.2z"/>
	<path class="st1" d="M278.7,394.7c0,1.4,1.2,2.6,2.6,2.6c1.4,0,2.6-1.2,2.6-2.6c0-1.4-1.2-2.6-2.6-2.6
		C279.8,392.1,278.7,393.2,278.7,394.7z"/>
	<path class="st1" d="M259.8,398c0,1.4,1.2,2.6,2.6,2.6c1.4,0,2.6-1.2,2.6-2.6c0-1.4-1.2-2.6-2.6-2.6
		C261,395.4,259.8,396.6,259.8,398z"/>
	<path class="st1" d="M259.8,411.5c0,1.4,1.2,2.6,2.6,2.6c1.4,0,2.6-1.2,2.6-2.6c0-1.4-1.2-2.6-2.6-2.6
		C261,408.9,259.8,410,259.8,411.5z"/>
	<path class="st1" d="M273.5,415.4c0,1.4,1.2,2.6,2.6,2.6c1.4,0,2.6-1.2,2.6-2.6s-1.2-2.6-2.6-2.6
		C274.7,412.8,273.5,414,273.5,415.4z"/>
	<path class="st1" d="M286.5,418.8c0,1.4,1.2,2.6,2.6,2.6c1.4,0,2.6-1.2,2.6-2.6c0-1.4-1.2-2.6-2.6-2.6
		C287.6,416.2,286.5,417.3,286.5,418.8z"/>
	<path class="st1" d="M287.7,410.5c0,1.4,1.2,2.6,2.6,2.6c1.4,0,2.6-1.2,2.6-2.6c0-1.4-1.2-2.6-2.6-2.6
		C288.9,407.9,287.7,409,287.7,410.5z"/>
	<path class="st1" d="M287,399.6c0,1.4,1.2,2.6,2.6,2.6s2.6-1.2,2.6-2.6c0-1.4-1.2-2.6-2.6-2.6S287,398.2,287,399.6z"/>
	<path class="st1" d="M268.7,391c0,1.4,1.2,2.6,2.6,2.6c1.4,0,2.6-1.2,2.6-2.6c0-1.4-1.2-2.6-2.6-2.6
		C269.8,388.4,268.7,389.6,268.7,391z"/>
	<path class="st1" d="M256.6,400.6c0,1.4,1.2,2.6,2.6,2.6c1.4,0,2.6-1.2,2.6-2.6c0-1.4-1.2-2.6-2.6-2.6
		C257.7,398,256.6,399.2,256.6,400.6z"/>
	<path class="st1" d="M558.1,269.6c0,1.4,1.2,2.6,2.6,2.6c1.4,0,2.6-1.2,2.6-2.6c0-1.4-1.2-2.6-2.6-2.6
		C559.2,267.1,558.1,268.2,558.1,269.6z"/>
	<path class="st1" d="M576.2,261.5c0,1.4,1.2,2.6,2.6,2.6c1.4,0,2.6-1.2,2.6-2.6c0-1.4-1.2-2.6-2.6-2.6
		C577.3,258.9,576.2,260.1,576.2,261.5z"/>
	<path class="st1" d="M635.2,612.6c0,1.4,1.2,2.6,2.6,2.6s2.6-1.2,2.6-2.6c0-1.4-1.2-2.6-2.6-2.6S635.2,611.2,635.2,612.6z"/>
	<path class="st1" d="M648.2,620.4c0,1.4,1.2,2.6,2.6,2.6c1.4,0,2.6-1.2,2.6-2.6c0-1.4-1.2-2.6-2.6-2.6
		C649.3,617.8,648.2,619,648.2,620.4z"/>
	<path class="st1" d="M639.1,632.9c0,1.4,1.2,2.6,2.6,2.6c1.4,0,2.6-1.2,2.6-2.6c0-1.4-1.2-2.6-2.6-2.6
		C640.3,630.3,639.1,631.4,639.1,632.9z"/>
	<path class="st1" d="M661.7,635c0,1.4,1.2,2.6,2.6,2.6c1.4,0,2.6-1.2,2.6-2.6s-1.2-2.6-2.6-2.6C662.8,632.4,661.7,633.6,661.7,635z
		"/>
	<path class="st1" d="M665.7,624.3c0,1.4,1.2,2.6,2.6,2.6s2.6-1.2,2.6-2.6c0-1.4-1.2-2.6-2.6-2.6S665.7,622.9,665.7,624.3z"/>
	<path class="st1" d="M570.9,458.6c0,1.4,1.2,2.6,2.6,2.6c1.4,0,2.6-1.2,2.6-2.6c0-1.4-1.2-2.6-2.6-2.6
		C572,456,570.9,457.1,570.9,458.6z"/>
	<path class="st1" d="M588.9,466.7c0,1.4,1.2,2.6,2.6,2.6c1.4,0,2.6-1.2,2.6-2.6c0-1.4-1.2-2.6-2.6-2.6
		C590.1,464.1,588.9,465.3,588.9,466.7z"/>
	<path class="st1" d="M556.3,464.1c0,1.4,1.2,2.6,2.6,2.6c1.4,0,2.6-1.2,2.6-2.6c0-1.4-1.2-2.6-2.6-2.6
		C557.5,461.6,556.3,462.7,556.3,464.1z"/>
	<path class="st1" d="M329.5,170.1c0,1.4,1.2,2.6,2.6,2.6c1.4,0,2.6-1.2,2.6-2.6c0-1.4-1.2-2.6-2.6-2.6
		C330.7,167.6,329.5,168.7,329.5,170.1z"/>
	<path class="st1" d="M321.1,176.2c0,1.4,1.2,2.6,2.6,2.6c1.4,0,2.6-1.2,2.6-2.6c0-1.4-1.2-2.6-2.6-2.6
		C322.3,173.6,321.1,174.8,321.1,176.2z"/>
	<path class="st1" d="M876.4,332.4c0,1.4,1.2,2.6,2.6,2.6c1.4,0,2.6-1.2,2.6-2.6c0-1.4-1.2-2.6-2.6-2.6
		C877.6,329.8,876.4,331,876.4,332.4z"/>
	<path class="st1" d="M890.9,321.5c0,1.4,1.2,2.6,2.6,2.6c1.4,0,2.6-1.2,2.6-2.6c0-1.4-1.2-2.6-2.6-2.6
		C892,319,890.9,320.1,890.9,321.5z"/>
	<path class="st1" d="M904.8,337.1c0,1.4,1.2,2.6,2.6,2.6s2.6-1.2,2.6-2.6c0-1.4-1.2-2.6-2.6-2.6S904.8,335.7,904.8,337.1z"/>
</g>
</svg>
